<mxfile modified="2024-01-18T07:30:25.243Z" host="app.diagrams.net" agent="Mozilla/5.0 (Windows NT 10.0; Win64; x64) AppleWebKit/537.36 (KHTML, like Gecko) Chrome/120.0.0.0 Safari/537.36" etag="qNCJqRWGF8vY4jnJIuLh" version="22.1.21" type="github">
  <diagram id="7gcUSTIZ7YSJ5vT40chW" name="Page-1">
    <mxGraphModel dx="1434" dy="746" grid="1" gridSize="10" guides="1" tooltips="1" connect="1" arrows="1" fold="1" page="1" pageScale="1" pageWidth="1169" pageHeight="827" math="0" shadow="0">
      <root>
        <mxCell id="0" />
        <mxCell id="1" parent="0" />
        <mxCell id="5wGyZsGhEu6iggw4Prn2-60" value="Microsoft gobal network" style="whiteSpace=wrap;html=1;verticalAlign=top;labelBackgroundColor=#ffffff;gradientColor=none;rounded=1;glass=1;shadow=0;dashed=1;dashPattern=1 2;movable=0;resizable=0;rotatable=0;deletable=0;editable=0;locked=1;connectable=0;" vertex="1" parent="1">
          <mxGeometry x="170" y="60" width="1000" height="500" as="geometry" />
        </mxCell>
        <mxCell id="5wGyZsGhEu6iggw4Prn2-59" value="Resource group&lt;br&gt;" style="whiteSpace=wrap;html=1;verticalAlign=top;labelBackgroundColor=#ffffff;gradientColor=none;rounded=1;glass=1;shadow=0;dashed=1;dashPattern=8 8;" vertex="1" parent="1">
          <mxGeometry x="560" y="110" width="600" height="370" as="geometry" />
        </mxCell>
        <mxCell id="5wGyZsGhEu6iggw4Prn2-54" value="" style="edgeStyle=orthogonalEdgeStyle;rounded=0;orthogonalLoop=1;jettySize=auto;html=1;" edge="1" parent="1" source="5wGyZsGhEu6iggw4Prn2-33" target="5wGyZsGhEu6iggw4Prn2-15">
          <mxGeometry relative="1" as="geometry" />
        </mxCell>
        <mxCell id="5wGyZsGhEu6iggw4Prn2-57" value="" style="edgeStyle=orthogonalEdgeStyle;rounded=0;orthogonalLoop=1;jettySize=auto;html=1;" edge="1" parent="1" source="5wGyZsGhEu6iggw4Prn2-33" target="5wGyZsGhEu6iggw4Prn2-15">
          <mxGeometry relative="1" as="geometry" />
        </mxCell>
        <mxCell id="5wGyZsGhEu6iggw4Prn2-33" value="" style="whiteSpace=wrap;html=1;verticalAlign=top;labelBackgroundColor=#ffffff;" vertex="1" parent="1">
          <mxGeometry x="600" y="160" width="220" height="240" as="geometry" />
        </mxCell>
        <mxCell id="5wGyZsGhEu6iggw4Prn2-52" style="edgeStyle=orthogonalEdgeStyle;rounded=0;orthogonalLoop=1;jettySize=auto;html=1;entryX=1;entryY=0.5;entryDx=0;entryDy=0;" edge="1" parent="1" source="5wGyZsGhEu6iggw4Prn2-25" target="5wGyZsGhEu6iggw4Prn2-33">
          <mxGeometry relative="1" as="geometry" />
        </mxCell>
        <mxCell id="5wGyZsGhEu6iggw4Prn2-25" value="Azure Database" style="whiteSpace=wrap;html=1;verticalAlign=top;labelBackgroundColor=#ffffff;" vertex="1" parent="1">
          <mxGeometry x="900" y="160" width="244" height="240" as="geometry" />
        </mxCell>
        <mxCell id="5wGyZsGhEu6iggw4Prn2-15" value="Global WAF Policy&lt;br&gt;Custom Access Control&lt;br&gt;Rate Limit&lt;br&gt;OWASP TOP 10 Protection&amp;nbsp;" style="whiteSpace=wrap;html=1;verticalAlign=top;labelBackgroundColor=#ffffff;" vertex="1" parent="1">
          <mxGeometry x="220" y="160" width="310" height="240" as="geometry" />
        </mxCell>
        <mxCell id="5wGyZsGhEu6iggw4Prn2-50" style="edgeStyle=orthogonalEdgeStyle;rounded=0;orthogonalLoop=1;jettySize=auto;html=1;" edge="1" parent="1" source="5wGyZsGhEu6iggw4Prn2-8">
          <mxGeometry relative="1" as="geometry">
            <mxPoint x="170" y="290" as="targetPoint" />
          </mxGeometry>
        </mxCell>
        <mxCell id="5wGyZsGhEu6iggw4Prn2-8" value="User" style="shape=image;verticalLabelPosition=bottom;labelBackgroundColor=#ffffff;verticalAlign=top;aspect=fixed;imageAspect=0;image=data:image/svg+xml,PHN2ZyB4bWxuczpjYz0iaHR0cDovL2NyZWF0aXZlY29tbW9ucy5vcmcvbnMjIiB4bWxuczpkYz0iaHR0cDovL3B1cmwub3JnL2RjL2VsZW1lbnRzLzEuMS8iIHhtbG5zOmlua3NjYXBlPSJodHRwOi8vd3d3Lmlua3NjYXBlLm9yZy9uYW1lc3BhY2VzL2lua3NjYXBlIiB4bWxuczpyZGY9Imh0dHA6Ly93d3cudzMub3JnLzE5OTkvMDIvMjItcmRmLXN5bnRheC1ucyMiIHhtbG5zOnNvZGlwb2RpPSJodHRwOi8vc29kaXBvZGkuc291cmNlZm9yZ2UubmV0L0RURC9zb2RpcG9kaS0wLmR0ZCIgeG1sbnM6c3ZnPSJodHRwOi8vd3d3LnczLm9yZy8yMDAwL3N2ZyIgeG1sbnM9Imh0dHA6Ly93d3cudzMub3JnLzIwMDAvc3ZnIiB4bWxuczp4bGluaz0iaHR0cDovL3d3dy53My5vcmcvMTk5OS94bGluayIgdmVyc2lvbj0iMS4xIiBpZD0ic3ZnMTAwNzM2IiBpbmtzY2FwZTp2ZXJzaW9uPSIwLjkyLjMgKDI0MDU1NDYsIDIwMTgtMDMtMTEpIiBzb2RpcG9kaTpkb2NuYW1lPSJ1c2Vycy5zdmciIHg9IjBweCIgeT0iMHB4IiB2aWV3Qm94PSIwIDAgMTkyLjEyIDIyNC45MSIgc3R5bGU9ImVuYWJsZS1iYWNrZ3JvdW5kOm5ldyAwIDAgMTkyLjEyIDIyNC45MTsiIHhtbDpzcGFjZT0icHJlc2VydmUiPiYjeGE7PHNvZGlwb2RpOm5hbWVkdmlldyBib3JkZXJjb2xvcj0iIzY2NjY2NiIgYm9yZGVyb3BhY2l0eT0iMSIgZml0LW1hcmdpbi1ib3R0b209IjAiIGZpdC1tYXJnaW4tbGVmdD0iMCIgZml0LW1hcmdpbi1yaWdodD0iMCIgZml0LW1hcmdpbi10b3A9IjAiIGdyaWR0b2xlcmFuY2U9IjEwIiBndWlkZXRvbGVyYW5jZT0iMTAiIGlkPSJuYW1lZHZpZXcxMDA3MzgiIGlua3NjYXBlOmN1cnJlbnQtbGF5ZXI9InN2ZzEwMDczNiIgaW5rc2NhcGU6Y3g9IjIwMS40NDcwNiIgaW5rc2NhcGU6Y3k9IjczLjk2NDI1MyIgaW5rc2NhcGU6cGFnZW9wYWNpdHk9IjAiIGlua3NjYXBlOnBhZ2VzaGFkb3c9IjIiIGlua3NjYXBlOndpbmRvdy1oZWlnaHQ9IjEwMTciIGlua3NjYXBlOndpbmRvdy1tYXhpbWl6ZWQ9IjEiIGlua3NjYXBlOndpbmRvdy13aWR0aD0iMTkyMCIgaW5rc2NhcGU6d2luZG93LXg9Ii04IiBpbmtzY2FwZTp3aW5kb3cteT0iLTgiIGlua3NjYXBlOnpvb209IjEuNDQ1NTY5IiBvYmplY3R0b2xlcmFuY2U9IjEwIiBwYWdlY29sb3I9IiNmZmZmZmYiIHNob3dncmlkPSJmYWxzZSI+JiN4YTsJPC9zb2RpcG9kaTpuYW1lZHZpZXc+JiN4YTs8ZyBpZD0iZzEwMDczNCIgdHJhbnNmb3JtPSJ0cmFuc2xhdGUoLTQuOTkwNTY4MWUtNywwLjAwNDQ1NzEzKSI+JiN4YTsJPHRpdGxlIGlkPSJ0aXRsZTEwMDU4NCI+UGFnZS0xPC90aXRsZT4mI3hhOwk8ZyBpZD0iZ3JvdXA1NTkzLTEiIHRyYW5zZm9ybT0idHJhbnNsYXRlKDAuMTQ5OTk5LC0wLjE0OTk5OSkiPiYjeGE7CQk8dGl0bGUgaWQ9InRpdGxlMTAwNTg2Ij5Vc2VyczwvdGl0bGU+JiN4YTsJCTxnIGlkPSJzaGFwZTU1OTQtMiIgdHJhbnNmb3JtPSJ0cmFuc2xhdGUoMjguNDk5MiwtMTM2LjY4MSkiPiYjeGE7CQkJPHRpdGxlIGlkPSJ0aXRsZTEwMDU4OCI+U2hlZXQuNTU5NDwvdGl0bGU+JiN4YTsJCQk8cGF0aCBpZD0icGF0aDEwMDU5MCIgaW5rc2NhcGU6Y29ubmVjdG9yLWN1cnZhdHVyZT0iMCIgc3R5bGU9ImZpbGw6IzZENDgyOTsiIGQ9Ik0wLDIyNC45MXYtMjguNDRoNDcuMzR2MjguNDRIMHoiLz4mI3hhOwkJPC9nPiYjeGE7CQk8ZyBpZD0ic2hhcGU1NTk1LTQiIHRyYW5zZm9ybT0idHJhbnNsYXRlKDAuMTE5OTk3LC0zMC42MDAyKSI+JiN4YTsJCQk8dGl0bGUgaWQ9InRpdGxlMTAwNTkzIj5TaGVldC41NTk1PC90aXRsZT4mI3hhOwkJCTxwYXRoIGlkPSJwYXRoMTAwNTk1IiBpbmtzY2FwZTpjb25uZWN0b3ItY3VydmF0dXJlPSIwIiBzdHlsZT0iZmlsbDojNDBDNUFGOyIgZD0iTTIyLjAyLDExMC4zMWg2MC4yNCAgICAgYzEyLjEyLDAsMjIuMDIsMTAuOCwyMi4wMiwyMy41MnYxOS42Mkg4Mi4zMnY3MS40NkgyMi4wOHYtNzEuNDZIMHYtMTkuNTZsMCwwYzAtMTIuNzgsOS45LTIzLjUyLDIyLjAyLTIzLjUyVjExMC4zMXoiLz4mI3hhOwkJPC9nPiYjeGE7CQk8ZyBpZD0ic2hhcGU1NTk2LTYiIHRyYW5zZm9ybT0idHJhbnNsYXRlKDg3LjE3NzYsLTQzLjA4MDMpIj4mI3hhOwkJCTx0aXRsZSBpZD0idGl0bGUxMDA1OTgiPlNoZWV0LjU1OTY8L3RpdGxlPiYjeGE7CQkJPHBhdGggaWQ9InBhdGgxMDA2MDAiIGlua3NjYXBlOmNvbm5lY3Rvci1jdXJ2YXR1cmU9IjAiIHN0eWxlPSJmaWxsOiNFMEJCOEQ7IiBkPSJNMTQuODIsMjI0Ljg1aDI0LjY2di0xOC44NEgxNy4yMnYtNDAuMDhIMCAgICAgdjQ0LjE2bDAsMGMwLjA2LDguMTYsNi42NiwxNC43NiwxNC44MiwxNC44MlYyMjQuODV6Ii8+JiN4YTsJCTwvZz4mI3hhOwkJPGcgaWQ9InNoYXBlNTU5Ny04Ij4mI3hhOwkJCTx0aXRsZSBpZD0idGl0bGUxMDA2MDMiPlNoZWV0LjU1OTc8L3RpdGxlPiYjeGE7CQkJPHBhdGggaWQ9InBhdGgxMDA2MDUiIGlua3NjYXBlOmNvbm5lY3Rvci1jdXJ2YXR1cmU9IjAiIHN0eWxlPSJmaWxsOiNFMEJCOEQ7IiBkPSJNMCwxMjIuODVoMTcuMjJ2MTAyLjA2SDBWMTIyLjg1eiIvPiYjeGE7CQk8L2c+JiN4YTsJCTxnIGlkPSJzaGFwZTU1OTgtMTAiPiYjeGE7CQkJPHRpdGxlIGlkPSJ0aXRsZTEwMDYwOCI+U2hlZXQuNTU5ODwvdGl0bGU+JiN4YTsJCQkmI3hhOwkJCQk8cGF0aCBpZD0icGF0aDEwMDYxMCIgaW5rc2NhcGU6Y29ubmVjdG9yLWN1cnZhdHVyZT0iMCIgc3R5bGU9ImZpbGw6bm9uZTtzdHJva2U6I0ZGRkZGRjtzdHJva2Utd2lkdGg6MC4zO3N0cm9rZS1saW5lY2FwOnJvdW5kO3N0cm9rZS1saW5lam9pbjpyb3VuZDtzdHJva2UtbWl0ZXJsaW1pdDozOyIgZD0iICAgICBNMCwxMjIuODVoMTcuMjJ2MTAyLjA2SDBWMTIyLjg1eiIvPiYjeGE7CQk8L2c+JiN4YTsJCTxnIGlkPSJzaGFwZTU1OTktMTIiIHRyYW5zZm9ybT0idHJhbnNsYXRlKDExMi40OTcsLTY4LjQwMDUpIj4mI3hhOwkJCTx0aXRsZSBpZD0idGl0bGUxMDA2MTMiPlNoZWV0LjU1OTk8L3RpdGxlPiYjeGE7CQkJPHBhdGggaWQ9InBhdGgxMDA2MTUiIGlua3NjYXBlOmNvbm5lY3Rvci1jdXJ2YXR1cmU9IjAiIHN0eWxlPSJmaWxsOiMzRjU3NjU7IiBkPSJNNzkuMzIsMTg2LjUxbC0yMC44OCwzOC40SDBsMjAuNTgtMzguNCAgICAgTDc5LjMyLDE4Ni41MXoiLz4mI3hhOwkJPC9nPiYjeGE7CQk8ZyBpZD0ic2hhcGU1NjAwLTE0IiB0cmFuc2Zvcm09InRyYW5zbGF0ZSgxMTIuNDk3LC02OC40MDA1KSI+JiN4YTsJCQk8dGl0bGUgaWQ9InRpdGxlMTAwNjE4Ij5TaGVldC41NjAwPC90aXRsZT4mI3hhOwkJCSYjeGE7CQkJCTxwYXRoIGlkPSJwYXRoMTAwNjIwIiBpbmtzY2FwZTpjb25uZWN0b3ItY3VydmF0dXJlPSIwIiBzdHlsZT0iZmlsbDpub25lO3N0cm9rZTojRkZGRkZGO3N0cm9rZS13aWR0aDowLjM7c3Ryb2tlLWxpbmVjYXA6cm91bmQ7c3Ryb2tlLWxpbmVqb2luOnJvdW5kO3N0cm9rZS1taXRlcmxpbWl0OjM7IiBkPSIgICAgIE03OS4zMiwxODYuNTFsLTIwLjg4LDM4LjRIMGwyMC41OC0zOC40TDc5LjMyLDE4Ni41MXoiLz4mI3hhOwkJPC9nPiYjeGE7CQk8ZyBpZD0ic2hhcGU1NjAxLTE2IiB0cmFuc2Zvcm09InRyYW5zbGF0ZSgwLC05Ny4wMjA4KSI+JiN4YTsJCQk8dGl0bGUgaWQ9InRpdGxlMTAwNjIzIj5TaGVldC41NjAxPC90aXRsZT4mI3hhOwkJCTxwYXRoIGlkPSJwYXRoMTAwNjI1IiBpbmtzY2FwZTpjb25uZWN0b3ItY3VydmF0dXJlPSIwIiBzdHlsZT0iZmlsbDojQzM5ODZGOyIgZD0iTTE3LjIyLDIyNC45MXYtNS4wNEgwdjUuMDRIMTcuMjJ6Ii8+JiN4YTsJCTwvZz4mI3hhOwkJPGcgaWQ9InNoYXBlNTYwMi0xOCIgdHJhbnNmb3JtPSJ0cmFuc2xhdGUoMCwtOTcuMDIwOCkiPiYjeGE7CQkJPHRpdGxlIGlkPSJ0aXRsZTEwMDYyOCI+U2hlZXQuNTYwMjwvdGl0bGU+JiN4YTsJCQkmI3hhOwkJCQk8cGF0aCBpZD0icGF0aDEwMDYzMCIgaW5rc2NhcGU6Y29ubmVjdG9yLWN1cnZhdHVyZT0iMCIgc3R5bGU9ImZpbGw6bm9uZTtzdHJva2U6I0ZGRkZGRjtzdHJva2Utd2lkdGg6MC4zO3N0cm9rZS1saW5lY2FwOnJvdW5kO3N0cm9rZS1saW5lam9pbjpyb3VuZDtzdHJva2UtbWl0ZXJsaW1pdDozOyIgZD0iICAgICBNMTcuMjIsMjI0Ljkxdi01LjA0SDB2NS4wNEgxNy4yMnoiLz4mI3hhOwkJPC9nPiYjeGE7CQk8ZyBpZD0ic2hhcGU1NjAzLTIwIiB0cmFuc2Zvcm09InRyYW5zbGF0ZSg4Ny4xNzc2LC05Ny4wMjA4KSI+JiN4YTsJCQk8dGl0bGUgaWQ9InRpdGxlMTAwNjMzIj5TaGVldC41NjAzPC90aXRsZT4mI3hhOwkJCTxwYXRoIGlkPSJwYXRoMTAwNjM1IiBpbmtzY2FwZTpjb25uZWN0b3ItY3VydmF0dXJlPSIwIiBzdHlsZT0iZmlsbDojQzM5ODZGOyIgZD0iTTE3LjIyLDIyNC45MXYtNS4wNEgwdjUuMDRIMTcuMjJ6Ii8+JiN4YTsJCTwvZz4mI3hhOwkJPGcgaWQ9InNoYXBlNTYwNC0yMiIgdHJhbnNmb3JtPSJ0cmFuc2xhdGUoODcuMTc3NiwtOTcuMDIwOCkiPiYjeGE7CQkJPHRpdGxlIGlkPSJ0aXRsZTEwMDYzOCI+U2hlZXQuNTYwNDwvdGl0bGU+JiN4YTsJCQkmI3hhOwkJCQk8cGF0aCBpZD0icGF0aDEwMDY0MCIgaW5rc2NhcGU6Y29ubmVjdG9yLWN1cnZhdHVyZT0iMCIgc3R5bGU9ImZpbGw6bm9uZTtzdHJva2U6I0ZGRkZGRjtzdHJva2Utd2lkdGg6MC4zO3N0cm9rZS1saW5lY2FwOnJvdW5kO3N0cm9rZS1saW5lam9pbjpyb3VuZDtzdHJva2UtbWl0ZXJsaW1pdDozOyIgZD0iICAgICBNMTcuMjIsMjI0Ljkxdi01LjA0SDB2NS4wNEgxNy4yMnoiLz4mI3hhOwkJPC9nPiYjeGE7CQk8ZyBpZD0ic2hhcGU1NjA1LTI0IiB0cmFuc2Zvcm09InRyYW5zbGF0ZSg0MS44Nzg5LC0xMzcuNTgxKSI+JiN4YTsJCQk8dGl0bGUgaWQ9InRpdGxlMTAwNjQzIj5TaGVldC41NjA1PC90aXRsZT4mI3hhOwkJCTxwYXRoIGlkPSJwYXRoMTAwNjQ1IiBpbmtzY2FwZTpjb25uZWN0b3ItY3VydmF0dXJlPSIwIiBzdHlsZT0iZmlsbDojRTFCQzhGOyIgZD0iTTAsMTkxLjQzaDIwLjI4djI3Ljg0bC0xMC4zMiw1LjY0TDAsMjE5LjI3ICAgICBWMTkxLjQzeiIvPiYjeGE7CQk8L2c+JiN4YTsJCTxnIGlkPSJzaGFwZTU2MDYtMjYiIHRyYW5zZm9ybT0idHJhbnNsYXRlKDIzLjM5OTQsLTE4MC40MjEpIj4mI3hhOwkJCTx0aXRsZSBpZD0idGl0bGUxMDA2NDgiPlNoZWV0LjU2MDY8L3RpdGxlPiYjeGE7CQkJPHBhdGggaWQ9InBhdGgxMDA2NTAiIGlua3NjYXBlOmNvbm5lY3Rvci1jdXJ2YXR1cmU9IjAiIHN0eWxlPSJmaWxsOiNDNDk5NzA7IiBkPSJNNTcuNzIsMjIxLjc5YzAsMS42Mi0xLjIsMy0yLjgyLDMuMTJIMi44OCAgICAgYy0xLjYyLTAuMTItMi44OC0xLjUtMi44OC0zLjEydi02LjI0YzAtMS41NiwxLjMyLTIuODIsMi44OC0yLjgySDU0LjljMS41NiwwLDIuODIsMS4yNiwyLjgyLDIuODJWMjIxLjc5eiIvPiYjeGE7CQk8L2c+JiN4YTsJCTxnIGlkPSJzaGFwZTU2MDctMjgiIHRyYW5zZm9ybT0idHJhbnNsYXRlKDQyLjExODksLTEzNy41ODEpIj4mI3hhOwkJCTx0aXRsZSBpZD0idGl0bGUxMDA2NTMiPlNoZWV0LjU2MDc8L3RpdGxlPiYjeGE7CQkJJiN4YTsJCQkJPHBhdGggaWQ9InBhdGgxMDA2NTUiIGlua3NjYXBlOmNvbm5lY3Rvci1jdXJ2YXR1cmU9IjAiIHN0eWxlPSJmaWxsOm5vbmU7c3Ryb2tlOiNGRkZGRkY7c3Ryb2tlLXdpZHRoOjAuNDg7c3Ryb2tlLWxpbmVjYXA6cm91bmQ7c3Ryb2tlLWxpbmVqb2luOnJvdW5kO3N0cm9rZS1taXRlcmxpbWl0OjM7IiBkPSIgICAgIE0wLDE5MS40M2gyMC4yOHYyNy44NGwtMTAuMjYsNS42NEwwLDIxOS4yN1YxOTEuNDN6Ii8+JiN4YTsJCTwvZz4mI3hhOwkJPGcgaWQ9InNoYXBlNTYwOC0zMCIgdHJhbnNmb3JtPSJ0cmFuc2xhdGUoNDIuMTE4OSwtMTUzLjU0MSkiPiYjeGE7CQkJPHRpdGxlIGlkPSJ0aXRsZTEwMDY1OCI+U2hlZXQuNTYwODwvdGl0bGU+JiN4YTsJCQk8cGF0aCBpZD0icGF0aDEwMDY2MCIgaW5rc2NhcGU6Y29ubmVjdG9yLWN1cnZhdHVyZT0iMCIgc3R5bGU9ImZpbGw6I0M0OTk3MDsiIGQ9Ik0wLDIyMy43MWMzLjMsMC45LDYuNjYsMS4zMiwxMC4wMiwxLjIgICAgIGMzLjQ4LDAuMDYsNi45LTAuMzYsMTAuMjYtMS4ydi0xNi4zMkgwVjIyMy43MXoiLz4mI3hhOwkJPC9nPiYjeGE7CQk8ZyBpZD0ic2hhcGU1NjA5LTMyIiB0cmFuc2Zvcm09InRyYW5zbGF0ZSgyOC43MzkyLC0xNTcuMzIxKSI+JiN4YTsJCQk8dGl0bGUgaWQ9InRpdGxlMTAwNjYzIj5TaGVldC41NjA5PC90aXRsZT4mI3hhOwkJCTxwYXRoIGlkPSJwYXRoMTAwNjY1IiBpbmtzY2FwZTpjb25uZWN0b3ItY3VydmF0dXJlPSIwIiBzdHlsZT0iZmlsbDojRTFCQzhGOyIgZD0iTTAsMTc5Ljk3djM3LjE0YzYuNzgsNC45OCwxNC45NCw3LjY4LDIzLjQsNy44ICAgICBjOC41OC0wLjEyLDE2Ljk4LTIuODIsMjQtNy44di0zNy4xNEgweiIvPiYjeGE7CQk8L2c+JiN4YTsJCTxnIGlkPSJzaGFwZTU2MTAtMzQiIHRyYW5zZm9ybT0idHJhbnNsYXRlKDI4LjQzOTIsLTE4OS4xMjEpIj4mI3hhOwkJCTx0aXRsZSBpZD0idGl0bGUxMDA2NjgiPlNoZWV0LjU2MTA8L3RpdGxlPiYjeGE7CQkJPHBhdGggaWQ9InBhdGgxMDA2NzAiIGlua3NjYXBlOmNvbm5lY3Rvci1jdXJ2YXR1cmU9IjAiIHN0eWxlPSJmaWxsOiM2RDQ4Mjk7IiBkPSJNMzMuNjYsMTkxLjQ5Yy0zLTEuNS02LjMtMi4yOC05LjY2LTIuMjIgICAgIGMtMTMuMi0wLjEyLTI0LDEwLjU2LTI0LDIzLjc2djExLjg4QzE3Ljc2LDIyMi42OSwzMS44LDIwOC45NSwzMy42NiwxOTEuNDl6Ii8+JiN4YTsJCTwvZz4mI3hhOwkJPGcgaWQ9InNoYXBlNTYxMS0zNiIgdHJhbnNmb3JtPSJ0cmFuc2xhdGUoNDIuNDc4OSwtMTg5LjEyMSkiPiYjeGE7CQkJPHRpdGxlIGlkPSJ0aXRsZTEwMDY3MyI+U2hlZXQuNTYxMTwvdGl0bGU+JiN4YTsJCQk8cGF0aCBpZD0icGF0aDEwMDY3NSIgaW5rc2NhcGU6Y29ubmVjdG9yLWN1cnZhdHVyZT0iMCIgc3R5bGU9ImZpbGw6IzZENDgyOTsiIGQ9Ik0wLDE5MS40OWMzLjA2LTEuNTYsNi40OC0yLjI4LDkuOTYtMi4yMiAgICAgYzEzLjA4LDAsMjMuNywxMC42MiwyMy43LDIzLjc2djExLjg4QzE2LjE0LDIyMi43NSwyLjI4LDIwOS4wMSwwLDE5MS40OXoiLz4mI3hhOwkJPC9nPiYjeGE7CQk8ZyBpZD0ic2hhcGU1NjEyLTM4IiB0cmFuc2Zvcm09InRyYW5zbGF0ZSg0Mi4xMTg5LC0xNjYuMDgxKSI+JiN4YTsJCQk8dGl0bGUgaWQ9InRpdGxlMTAwNjc4Ij5TaGVldC41NjEyPC90aXRsZT4mI3hhOwkJCTxwYXRoIGlkPSJwYXRoMTAwNjgwIiBpbmtzY2FwZTpjb25uZWN0b3ItY3VydmF0dXJlPSIwIiBzdHlsZT0iZmlsbDojRkZGRkZGOyIgZD0iTTAsMjE5LjkzYzIuNDYsMy4yNCw2LjMsNS4xLDEwLjMyLDQuOTggICAgIGMzLjk2LDAuMDYsNy42OC0xLjgsMTAuMDItNC45OEgweiIvPiYjeGE7CQk8L2c+JiN4YTsJCTxnIGlkPSJzaGFwZTU2MTMtNDAiIHRyYW5zZm9ybT0idHJhbnNsYXRlKDQ5LjAxODcsLTE3NS4zODEpIj4mI3hhOwkJCTx0aXRsZSBpZD0idGl0bGUxMDA2ODMiPlNoZWV0LjU2MTM8L3RpdGxlPiYjeGE7CQkJPHBhdGggaWQ9InBhdGgxMDA2ODUiIGlua3NjYXBlOmNvbm5lY3Rvci1jdXJ2YXR1cmU9IjAiIHN0eWxlPSJmaWxsOiNDNDk5NzA7IiBkPSJNMCwyMjMuMzVjMC44NCwwLjk2LDIuMSwxLjU2LDMuNDIsMS41NiAgICAgYzEuMjYsMCwyLjQtMC42LDMuMTItMS41NkgweiIvPiYjeGE7CQk8L2c+JiN4YTsJCTxnIGlkPSJzaGFwZTU2MTQtNDIiIHRyYW5zZm9ybT0idHJhbnNsYXRlKDM5LjU4MzksLTE4NS4xMDEpIj4mI3hhOwkJCTx0aXRsZSBpZD0idGl0bGUxMDA2ODgiPlNoZWV0LjU2MTQ8L3RpdGxlPiYjeGE7CQkJPHBhdGggaWQ9InBhdGgxMDA2OTAiIGlua3NjYXBlOmNvbm5lY3Rvci1jdXJ2YXR1cmU9IjAiIHN0eWxlPSJmaWxsOiMzMzMzMzM7IiBkPSJNMy40MywyMjMuMzVjLTAuMDYsMC45Ni0wLjksMS42Mi0xLjg2LDEuNTYgICAgIGMtMi4wOSwwLTIuMDktMy4xMiwwLTMuMTJDMi41MywyMjEuNzMsMy4zNywyMjIuMzksMy40MywyMjMuMzV6Ii8+JiN4YTsJCTwvZz4mI3hhOwkJPGcgaWQ9InNoYXBlNTYxNS00NCIgdHJhbnNmb3JtPSJ0cmFuc2xhdGUoNjEuNzgzMywtMTg1LjEwMSkiPiYjeGE7CQkJPHRpdGxlIGlkPSJ0aXRsZTEwMDY5MyI+U2hlZXQuNTYxNTwvdGl0bGU+JiN4YTsJCQk8cGF0aCBpZD0icGF0aDEwMDY5NSIgaW5rc2NhcGU6Y29ubmVjdG9yLWN1cnZhdHVyZT0iMCIgc3R5bGU9ImZpbGw6IzMzMzMzMzsiIGQ9Ik0zLjQzLDIyMy4zNWMtMC4xMiwwLjk2LTAuOTYsMS42Mi0xLjg2LDEuNTYgICAgIGMtMi4wOSwwLTIuMDktMy4xMiwwLTMuMTJDMi40NywyMjEuNzMsMy4zMSwyMjIuMzksMy40MywyMjMuMzV6Ii8+JiN4YTsJCTwvZz4mI3hhOwkJPGcgaWQ9InNoYXBlNTYxNi00NiIgdHJhbnNmb3JtPSJ0cmFuc2xhdGUoNDYuNDk4NywtODYuNzYwNykiPiYjeGE7CQkJPHRpdGxlIGlkPSJ0aXRsZTEwMDY5OCI+U2hlZXQuNTYxNjwvdGl0bGU+JiN4YTsJCQk8cGF0aCBpZD0icGF0aDEwMDcwMCIgaW5rc2NhcGU6Y29ubmVjdG9yLWN1cnZhdHVyZT0iMCIgc3R5bGU9ImZpbGw6I0ZGRkZGRjsiIGQ9Ik0wLDIwNS45NWgxMS41MnYxOC45NkgwVjIwNS45NXoiLz4mI3hhOwkJPC9nPiYjeGE7CQk8ZyBpZD0ic2hhcGU1NjE3LTQ4IiB0cmFuc2Zvcm09InRyYW5zbGF0ZSg0My4xMzg4LC0xMDUuMzYxKSI+JiN4YTsJCQk8dGl0bGUgaWQ9InRpdGxlMTAwNzAzIj5TaGVldC41NjE3PC90aXRsZT4mI3hhOwkJCSYjeGE7CQkJCTxwYXRoIGlkPSJwYXRoMTAwNzA1IiBpbmtzY2FwZTpjb25uZWN0b3ItY3VydmF0dXJlPSIwIiBzdHlsZT0iZmlsbDpub25lO3N0cm9rZTojRkZGRkZGO3N0cm9rZS13aWR0aDowLjc4O3N0cm9rZS1saW5lY2FwOnJvdW5kO3N0cm9rZS1saW5lam9pbjpyb3VuZDtzdHJva2UtbWl0ZXJsaW1pdDozOyIgZD0iICAgICBNMy45LDIyNC45MUwwLDE4Ny41OSIvPiYjeGE7CQk8L2c+JiN4YTsJCTxnIGlkPSJzaGFwZTU2MTgtNTEiIHRyYW5zZm9ybT0idHJhbnNsYXRlKDU3LjUzODQsLTEwNS40ODEpIj4mI3hhOwkJCTx0aXRsZSBpZD0idGl0bGUxMDA3MDgiPlNoZWV0LjU2MTg8L3RpdGxlPiYjeGE7CQkJJiN4YTsJCQkJPHBhdGggaWQ9InBhdGgxMDA3MTAiIGlua3NjYXBlOmNvbm5lY3Rvci1jdXJ2YXR1cmU9IjAiIHN0eWxlPSJmaWxsOm5vbmU7c3Ryb2tlOiNGRkZGRkY7c3Ryb2tlLXdpZHRoOjAuNzg7c3Ryb2tlLWxpbmVjYXA6cm91bmQ7c3Ryb2tlLWxpbmVqb2luOnJvdW5kO3N0cm9rZS1taXRlcmxpbWl0OjM7IiBkPSIgICAgIE0wLDIyNC45MWwzLjg0LTM3LjIiLz4mI3hhOwkJPC9nPiYjeGE7CQk8ZyBpZD0ic2hhcGU1NjE5LTU0IiB0cmFuc2Zvcm09InRyYW5zbGF0ZSg0OC42NTg3LC05Ni40ODA3KSI+JiN4YTsJCQk8dGl0bGUgaWQ9InRpdGxlMTAwNzEzIj5TaGVldC41NjE5PC90aXRsZT4mI3hhOwkJCTxwYXRoIGlkPSJwYXRoMTAwNzE1IiBpbmtzY2FwZTpjb25uZWN0b3ItY3VydmF0dXJlPSIwIiBzdHlsZT0iZmlsbDojRjA1MTI1OyIgZD0iTTAsMjIxLjQ5aDMuNDJ2My40MkgwVjIyMS40OXoiLz4mI3hhOwkJPC9nPiYjeGE7CQk8ZyBpZD0ic2hhcGU1NjIwLTU2IiB0cmFuc2Zvcm09InRyYW5zbGF0ZSg1Mi40OTg2LC05Ni40ODA3KSI+JiN4YTsJCQk8dGl0bGUgaWQ9InRpdGxlMTAwNzE4Ij5TaGVldC41NjIwPC90aXRsZT4mI3hhOwkJCTxwYXRoIGlkPSJwYXRoMTAwNzIwIiBpbmtzY2FwZTpjb25uZWN0b3ItY3VydmF0dXJlPSIwIiBzdHlsZT0iZmlsbDojN0ZCQjQyOyIgZD0iTTAsMjIxLjQ5aDMuNDJ2My40MkgwVjIyMS40OXoiLz4mI3hhOwkJPC9nPiYjeGE7CQk8ZyBpZD0ic2hhcGU1NjIxLTU4IiB0cmFuc2Zvcm09InRyYW5zbGF0ZSg1Mi40OTg2LC05Mi42NDA3KSI+JiN4YTsJCQk8dGl0bGUgaWQ9InRpdGxlMTAwNzIzIj5TaGVldC41NjIxPC90aXRsZT4mI3hhOwkJCTxwYXRoIGlkPSJwYXRoMTAwNzI1IiBpbmtzY2FwZTpjb25uZWN0b3ItY3VydmF0dXJlPSIwIiBzdHlsZT0iZmlsbDojRkRCODEzOyIgZD0iTTAsMjIxLjQ5aDMuNDJ2My40MkgwVjIyMS40OXoiLz4mI3hhOwkJPC9nPiYjeGE7CQk8ZyBpZD0ic2hhcGU1NjIyLTYwIiB0cmFuc2Zvcm09InRyYW5zbGF0ZSg0OC42NTg3LC05Mi42NDA3KSI+JiN4YTsJCQk8dGl0bGUgaWQ9InRpdGxlMTAwNzI4Ij5TaGVldC41NjIyPC90aXRsZT4mI3hhOwkJCTxwYXRoIGlkPSJwYXRoMTAwNzMwIiBpbmtzY2FwZTpjb25uZWN0b3ItY3VydmF0dXJlPSIwIiBzdHlsZT0iZmlsbDojMzJBMERBOyIgZD0iTTAsMjIxLjQ5aDMuNDJ2My40MkgwVjIyMS40OXoiLz4mI3hhOwkJPC9nPiYjeGE7CTwvZz4mI3hhOzwvZz4mI3hhOzwvc3ZnPg==;" vertex="1" parent="1">
          <mxGeometry x="10" y="220" width="119.47" height="140" as="geometry" />
        </mxCell>
        <mxCell id="5wGyZsGhEu6iggw4Prn2-39" style="edgeStyle=orthogonalEdgeStyle;rounded=0;orthogonalLoop=1;jettySize=auto;html=1;" edge="1" parent="1">
          <mxGeometry relative="1" as="geometry">
            <mxPoint x="590" y="279" as="targetPoint" />
            <mxPoint x="428" y="279" as="sourcePoint" />
            <Array as="points">
              <mxPoint x="509" y="279" />
              <mxPoint x="509" y="280" />
            </Array>
          </mxGeometry>
        </mxCell>
        <mxCell id="5wGyZsGhEu6iggw4Prn2-10" value="Azure Web Application Firewall(WAF)" style="image;aspect=fixed;html=1;points=[];align=center;fontSize=12;image=img/lib/azure2/networking/Web_Application_Firewall_Policies_WAF.svg;" vertex="1" parent="1">
          <mxGeometry x="360" y="251" width="68" height="68" as="geometry" />
        </mxCell>
        <mxCell id="5wGyZsGhEu6iggw4Prn2-12" value="App Service&#xa;" style="shape=image;verticalLabelPosition=bottom;labelBackgroundColor=#ffffff;verticalAlign=top;aspect=fixed;imageAspect=0;image=data:image/svg+xml,PHN2ZyB4bWxuczpjYz0iaHR0cDovL2NyZWF0aXZlY29tbW9ucy5vcmcvbnMjIiB4bWxuczpkYz0iaHR0cDovL3B1cmwub3JnL2RjL2VsZW1lbnRzLzEuMS8iIHhtbG5zOmlua3NjYXBlPSJodHRwOi8vd3d3Lmlua3NjYXBlLm9yZy9uYW1lc3BhY2VzL2lua3NjYXBlIiB4bWxuczpyZGY9Imh0dHA6Ly93d3cudzMub3JnLzE5OTkvMDIvMjItcmRmLXN5bnRheC1ucyMiIHhtbG5zOnNvZGlwb2RpPSJodHRwOi8vc29kaXBvZGkuc291cmNlZm9yZ2UubmV0L0RURC9zb2RpcG9kaS0wLmR0ZCIgeG1sbnM6c3ZnPSJodHRwOi8vd3d3LnczLm9yZy8yMDAwL3N2ZyIgeG1sbnM9Imh0dHA6Ly93d3cudzMub3JnLzIwMDAvc3ZnIiB4bWxuczp4bGluaz0iaHR0cDovL3d3dy53My5vcmcvMTk5OS94bGluayIgdmVyc2lvbj0iMS4xIiBpZD0ic3ZnMTU1Mzg3IiBpbmtzY2FwZTp2ZXJzaW9uPSIwLjkyLjMgKDI0MDU1NDYsIDIwMTgtMDMtMTEpIiBzb2RpcG9kaTpkb2NuYW1lPSJhenVyZV9hcHBfc2VydmljZS5zdmciIHg9IjBweCIgeT0iMHB4IiB2aWV3Qm94PSIwIDAgNjYuMzcgNjYuMDUiIHN0eWxlPSJlbmFibGUtYmFja2dyb3VuZDpuZXcgMCAwIDY2LjM3IDY2LjA1OyIgeG1sOnNwYWNlPSJwcmVzZXJ2ZSI+JiN4YTs8c29kaXBvZGk6bmFtZWR2aWV3IGJvcmRlcmNvbG9yPSIjNjY2NjY2IiBib3JkZXJvcGFjaXR5PSIxIiBmaXQtbWFyZ2luLWJvdHRvbT0iMCIgZml0LW1hcmdpbi1sZWZ0PSIwIiBmaXQtbWFyZ2luLXJpZ2h0PSIwIiBmaXQtbWFyZ2luLXRvcD0iMCIgZ3JpZHRvbGVyYW5jZT0iMTAiIGd1aWRldG9sZXJhbmNlPSIxMCIgaWQ9Im5hbWVkdmlldzE1NTM4OSIgaW5rc2NhcGU6Y3VycmVudC1sYXllcj0ic3ZnMTU1Mzg3IiBpbmtzY2FwZTpjeD0iNTUuNTkwNTgzIiBpbmtzY2FwZTpjeT0iMzEuOTM3Mjk2IiBpbmtzY2FwZTpwYWdlb3BhY2l0eT0iMCIgaW5rc2NhcGU6cGFnZXNoYWRvdz0iMiIgaW5rc2NhcGU6d2luZG93LWhlaWdodD0iMTAxNyIgaW5rc2NhcGU6d2luZG93LW1heGltaXplZD0iMSIgaW5rc2NhcGU6d2luZG93LXdpZHRoPSIxOTIwIiBpbmtzY2FwZTp3aW5kb3cteD0iLTgiIGlua3NjYXBlOndpbmRvdy15PSItOCIgaW5rc2NhcGU6em9vbT0iNi45NjEzNzM4IiBvYmplY3R0b2xlcmFuY2U9IjEwIiBwYWdlY29sb3I9IiNmZmZmZmYiIHNob3dncmlkPSJmYWxzZSI+JiN4YTsJPC9zb2RpcG9kaTpuYW1lZHZpZXc+JiN4YTs8ZyBpZD0iZzE1NTM4NSIgdHJhbnNmb3JtPSJ0cmFuc2xhdGUoMCwwLjAwMikiPiYjeGE7CTx0aXRsZSBpZD0idGl0bGUxNTUzNDAiPlBhZ2UtMTwvdGl0bGU+JiN4YTsJPGcgaWQ9Imdyb3VwMzY2Ni0xIj4mI3hhOwkJPHRpdGxlIGlkPSJ0aXRsZTE1NTM0MiI+QXp1cmUgQXBwIFNlcnZpY2U8L3RpdGxlPiYjeGE7CQk8ZyBpZD0ic2hhcGUzNjY3LTIiIHRyYW5zZm9ybT0idHJhbnNsYXRlKDM1LjE3MDgpIj4mI3hhOwkJCTx0aXRsZSBpZD0idGl0bGUxNTUzNDQiPlNoZWV0LjM2Njc8L3RpdGxlPiYjeGE7CQkJPHBhdGggaWQ9InBhdGgxNTUzNDYiIGlua3NjYXBlOmNvbm5lY3Rvci1jdXJ2YXR1cmU9IjAiIHN0eWxlPSJmaWxsOiMzRjU3NjU7IiBkPSJNMTQuMTIsNDguMzNjLTIuMjQsMC04LDAtMTQuMTIsMCAgICAgYzAsMTQuNiwwLDE0LjYsMCwxNC42YzAsMC4xMiwwLDAuMTcsMCwwLjIzczAsMC4wNiwwLDAuMDZjMCwwLjA2LDAsMC4xOCwwLDAuMjRjMC4wNywwLDAuMDcsMCwwLjA3LDAgICAgIGMwLjI0LDEuNDUsMS41MSwyLjU5LDMuMDMsMi41OWMyNC45NiwwLDI0Ljk2LDAsMjQuOTYsMGMxLjc2LDAsMy4xNC0xLjM4LDMuMTQtMy4xMmMwLTI0Ljg0LDAtMjQuODQsMC0yNC44NCAgICAgYzAtMS42OC0xLjM4LTMuMDgtMy4xNC0zLjA4Yy0zLjU4LDAtMy41OCwwLTMuNTgsMGMwLjMsMC45MSwwLjQyLDEuOTQsMC40MiwzLjAyQzI0LjksNDMuOTQsMjAuMTEsNDguMzMsMTQuMTIsNDguMzN6Ii8+JiN4YTsJCTwvZz4mI3hhOwkJPGcgaWQ9InNoYXBlMzY2OC00Ij4mI3hhOwkJCTx0aXRsZSBpZD0idGl0bGUxNTUzNDkiPlNoZWV0LjM2Njg8L3RpdGxlPiYjeGE7CQkJPHBhdGggaWQ9InBhdGgxNTUzNTEiIGlua3NjYXBlOmNvbm5lY3Rvci1jdXJ2YXR1cmU9IjAiIHN0eWxlPSJmaWxsOiMzRjU3NjU7IiBkPSJNNi4zOSwzOC4wM2MwLTEuMDgsMC4xOC0yLjExLDAuNDgtMy4wMiAgICAgYy0zLjc0LDAtMy43NCwwLTMuNzQsMGMtMS41NiwwLTIuODIsMS4wOS0zLjA2LDIuNTNjMCwwLDAsMCwwLDAuMDdjMCwwLjA2LDAsMC4xMi0wLjA3LDAuMThjMCwwLjA2LDAsMC4wNiwwLDAuMDYgICAgIGMwLDAuMDYsMCwwLjE4LDAsMC4yNGMwLDI0Ljg0LDAsMjQuODQsMCwyNC44NGMwLDAuMTIsMCwwLjE3LDAsMC4yM3MwLDAuMDYsMCwwLjA2YzAuMDcsMC4wNiwwLjA3LDAuMTgsMC4wNywwLjI0bDAsMCAgICAgYzAuMjQsMS40NSwxLjUsMi41OSwzLjA2LDIuNTljMjQuODIsMCwyNC44MiwwLDI0LjgyLDBjMS42OCwwLDMuMDYtMS4zOCwzLjA2LTMuMTJjMC0xNC42LDAtMTQuNiwwLTE0LjYgICAgIGMtNS43OCwwLTExLjMxLDAtMTMuOTEsMEMxMS4yLDQ4LjMzLDYuMzksNDMuOTQsNi4zOSwzOC4wM3oiLz4mI3hhOwkJPC9nPiYjeGE7CQk8ZyBpZD0ic2hhcGUzNjY5LTYiIHRyYW5zZm9ybT0idHJhbnNsYXRlKDM1LjE3MDgsLTM1LjAxMikiPiYjeGE7CQkJPHRpdGxlIGlkPSJ0aXRsZTE1NTM1NCI+U2hlZXQuMzY2OTwvdGl0bGU+JiN4YTsJCQk8cGF0aCBpZD0icGF0aDE1NTM1NiIgaW5rc2NhcGU6Y29ubmVjdG9yLWN1cnZhdHVyZT0iMCIgc3R5bGU9ImZpbGw6IzNGNTc2NTsiIGQ9Ik0zMS4yLDYyLjk3YzAtMjQuODcsMC0yNC44NywwLTI0Ljg3ICAgICBjMC0xLjY5LTEuMzgtMy4wOS0zLjE0LTMuMDljLTI0Ljk2LDAtMjQuOTYsMC0yNC45NiwwYy0xLjUyLDAtMi43OSwxLjA5LTMuMDMsMi41NWMwLDAsMCwwLTAuMDcsMGMwLDAuMTEsMCwwLjE3LDAsMC4yM3YwLjA2ICAgICBjMCwwLjA3LDAsMC4xOSwwLDAuMjVjMCwxMS4yOCwwLDExLjI4LDAsMTEuMjhjMS4xLTAuMjksMi4xOS0wLjQxLDMuNC0wLjQxYzcuNTcsMCwxMy43NSw2LjA5LDEzLjc1LDEzLjcxICAgICBjMCwwLjEyLTAuMDYsMC4yOS0wLjA2LDAuNDFjMS45NCwwLjYxLDMuNywxLjYzLDUuMDMsMi45NmM1Ljk0LDAsNS45NCwwLDUuOTQsMEMyOS44Miw2Ni4wNSwzMS4yLDY0LjY3LDMxLjIsNjIuOTd6Ii8+JiN4YTsJCTwvZz4mI3hhOwkJPGcgaWQ9InNoYXBlMzY3MC04IiB0cmFuc2Zvcm09InRyYW5zbGF0ZSgwLC0zNS4wMTIpIj4mI3hhOwkJCTx0aXRsZSBpZD0idGl0bGUxNTUzNTkiPlNoZWV0LjM2NzA8L3RpdGxlPiYjeGE7CQkJPHBhdGggaWQ9InBhdGgxNTUzNjEiIGlua3NjYXBlOmNvbm5lY3Rvci1jdXJ2YXR1cmU9IjAiIHN0eWxlPSJmaWxsOiMzRjU3NjU7IiBkPSJNMTQuODgsNjIuOTJjLTAuMDYtMC40OS0wLjEyLTAuOTctMC4xMi0xLjQ2ICAgICBjMC00LjU5LDMuNjgtOC4zMyw4LjMxLTguMzNjMS42OSwwLDMuMTksMC40OSw0LjUxLDEuMzNjMC45Ny0xLjI3LDIuMTEtMi4zNiwzLjQzLTMuMjVjMC0xMy4xMSwwLTEzLjExLDAtMTMuMTEgICAgIGMwLTEuNjktMS4zOC0zLjA5LTMuMDYtMy4wOWMtMjQuODIsMC0yNC44MiwwLTI0LjgyLDBjLTEuNTYsMC0yLjgyLDEuMDktMy4wNiwyLjU1bDAsMGMwLDAuMTEsMCwwLjE3LTAuMDcsMC4yM3YwLjA2ICAgICBjMCwwLjA3LDAsMC4xOSwwLDAuMjVjMCwyNC44NywwLDI0Ljg3LDAsMjQuODdjMCwwLjA2LDAsMC4xOCwwLDAuMjV2MC4wNmMwLjA3LDAuMDYsMC4wNywwLjEyLDAuMDcsMC4yNGwwLDAgICAgIGMwLjI0LDEuNDUsMS41LDIuNTMsMy4wNiwyLjUzYzUuOTcsMCw1Ljk3LDAsNS45NywwQzEwLjYsNjQuNDksMTIuNTksNjMuNCwxNC44OCw2Mi45MnoiLz4mI3hhOwkJPC9nPiYjeGE7CQk8ZyBpZD0ic2hhcGUzNjcxLTEwIiB0cmFuc2Zvcm09InRyYW5zbGF0ZSgzNS4xNzA4LC0xNy43ODk5KSI+JiN4YTsJCQk8dGl0bGUgaWQ9InRpdGxlMTU1MzY0Ij5TaGVldC4zNjcxPC90aXRsZT4mI3hhOwkJCTxwYXRoIGlkPSJwYXRoMTU1MzY2IiBpbmtzY2FwZTpjb25uZWN0b3ItY3VydmF0dXJlPSIwIiBzdHlsZT0iZmlsbDojRkZGRkZGOyIgZD0iTTAuMDcsNTUuMzJjMCwwLDAsMC0wLjA3LDAuMDYgICAgIGMwLDAuMDYsMCwwLjEzLDAsMC4xOWMwLDAuMDYsMCwwLjA2LDAsMC4wNmMwLDAuMDYsMCwwLjE4LDAsMC4yNGMwLDEwLjE4LDAsMTAuMTgsMCwxMC4xOGM2LjEzLDAsMTEuOTEsMCwxNC4xNiwwICAgICBjNi4wMSwwLDEwLjgtNC4zNywxMC44LTEwLjI0YzAtMS4wOC0wLjEyLTIuMTEtMC40My0zLjAxYy0yMS40MiwwLTIxLjQyLDAtMjEuNDIsMEMxLjU4LDUyLjgsMC4zMSw1My44OSwwLjA3LDU1LjMyeiIvPiYjeGE7CQk8L2c+JiN4YTsJCTxnIGlkPSJzaGFwZTM2NzItMTIiIHRyYW5zZm9ybT0idHJhbnNsYXRlKDYuNDI5MDcsLTE3Ljc4OTkpIj4mI3hhOwkJCTx0aXRsZSBpZD0idGl0bGUxNTUzNjkiPlNoZWV0LjM2NzI8L3RpdGxlPiYjeGE7CQkJPHBhdGggaWQ9InBhdGgxNTUzNzEiIGlua3NjYXBlOmNvbm5lY3Rvci1jdXJ2YXR1cmU9IjAiIHN0eWxlPSJmaWxsOiNGRkZGRkY7IiBkPSJNMjEuNTIsNTIuOGMtMjEuMDQsMC0yMS4wNCwwLTIxLjA0LDAgICAgIEMwLjE5LDUzLjcsMCw1NC43MywwLDU1LjgxYzAsNS44Nyw0LjgxLDEwLjI0LDEwLjcxLDEwLjI0YzIuNTcsMCw4LjEsMCwxMy44NywwYzAtMTAuMTgsMC0xMC4xOCwwLTEwLjE4ICAgICBDMjQuNTgsNTQuMTksMjMuMjEsNTIuOCwyMS41Miw1Mi44eiIvPiYjeGE7CQk8L2c+JiN4YTsJCTxnIGlkPSJzaGFwZTM2NzMtMTQiIHRyYW5zZm9ybT0idHJhbnNsYXRlKDM1LjE3MDgsLTM1LjAxMikiPiYjeGE7CQkJPHRpdGxlIGlkPSJ0aXRsZTE1NTM3NCI+U2hlZXQuMzY3MzwvdGl0bGU+JiN4YTsJCQk8cGF0aCBpZD0icGF0aDE1NTM3NiIgaW5rc2NhcGU6Y29ubmVjdG9yLWN1cnZhdHVyZT0iMCIgc3R5bGU9ImZpbGw6I0ZGRkZGRjsiIGQ9Ik0xNy4xNiw2Mi42OWMwLTcuNTktNi4xOC0xMy42Ny0xMy43Ni0xMy42NyAgICAgYy0xLjIxLDAtMi4zLDAuMTMtMy40LDAuNDJjMCwxMy41NSwwLDEzLjU1LDAsMTMuNTVjMCwwLjA2LDAsMC4xNywwLDAuMjN2MC4wNmMwLDAuMDYsMCwwLjEzLDAsMC4yNWMwLjA3LDAsMC4wNywwLDAuMDcsMCAgICAgYzAuMjQsMS40NCwxLjUxLDIuNTIsMy4wMywyLjUyYzE5LjAyLDAsMTkuMDIsMCwxOS4wMiwwYy0xLjMyLTEuMzEtMy4wOC0yLjM0LTUuMDItMi45NUMxNy4xLDYyLjk5LDE3LjE2LDYyLjgxLDE3LjE2LDYyLjY5eiIvPiYjeGE7CQk8L2c+JiN4YTsJCTxnIGlkPSJzaGFwZTM2NzQtMTYiIHRyYW5zZm9ybT0idHJhbnNsYXRlKDkuMDc2MzQsLTM1LjAxMikiPiYjeGE7CQkJPHRpdGxlIGlkPSJ0aXRsZTE1NTM3OSI+U2hlZXQuMzY3NDwvdGl0bGU+JiN4YTsJCQk8cGF0aCBpZD0icGF0aDE1NTM4MSIgaW5rc2NhcGU6Y29ubmVjdG9yLWN1cnZhdHVyZT0iMCIgc3R5bGU9ImZpbGw6I0ZGRkZGRjsiIGQ9Ik0yMS45Myw2Mi45NWMwLTExLjg1LDAtMTEuODUsMC0xMS44NSAgICAgYy0xLjMyLDAuOTItMi40NywyLjAxLTMuNDIsMy4yOWMtMS4zMy0wLjg1LTIuODQtMS4zNC00LjUzLTEuMzRjLTQuNjMsMC04LjMxLDMuNzYtOC4zMSw4LjM5YzAsMC40OCwwLjA2LDAuOTcsMC4xMiwxLjQ1ICAgICBDMy41LDYzLjM4LDEuNTEsNjQuNDgsMCw2Ni4wNWMxOC44NiwwLDE4Ljg2LDAsMTguODYsMEMyMC41NSw2Ni4wNSwyMS45Myw2NC42NSwyMS45Myw2Mi45NXoiLz4mI3hhOwkJPC9nPiYjeGE7CTwvZz4mI3hhOzwvZz4mI3hhOzwvc3ZnPg==;" vertex="1" parent="1">
          <mxGeometry x="670" y="184.99999999999977" width="66" height="66" as="geometry" />
        </mxCell>
        <mxCell id="5wGyZsGhEu6iggw4Prn2-13" value="SQL Azure&lt;br&gt;" style="verticalLabelPosition=bottom;html=1;verticalAlign=top;align=center;strokeColor=none;fillColor=#00BEF2;shape=mxgraph.azure.sql_database_sql_azure;" vertex="1" parent="1">
          <mxGeometry x="990" y="245" width="90" height="80" as="geometry" />
        </mxCell>
        <mxCell id="5wGyZsGhEu6iggw4Prn2-18" style="edgeStyle=orthogonalEdgeStyle;rounded=0;orthogonalLoop=1;jettySize=auto;html=1;" edge="1" parent="1">
          <mxGeometry relative="1" as="geometry">
            <mxPoint x="826" y="279.5" as="sourcePoint" />
            <mxPoint x="900" y="280" as="targetPoint" />
          </mxGeometry>
        </mxCell>
        <mxCell id="5wGyZsGhEu6iggw4Prn2-61" style="edgeStyle=orthogonalEdgeStyle;rounded=0;orthogonalLoop=1;jettySize=auto;html=1;dashed=1;exitX=0.5;exitY=0;exitDx=0;exitDy=0;exitPerimeter=0;" edge="1" parent="1" source="5wGyZsGhEu6iggw4Prn2-9" target="5wGyZsGhEu6iggw4Prn2-60">
          <mxGeometry relative="1" as="geometry" />
        </mxCell>
        <mxCell id="5wGyZsGhEu6iggw4Prn2-9" value="Azure Front Door" style="image;aspect=fixed;html=1;points=[];align=center;fontSize=12;image=img/lib/azure2/networking/Front_Doors.svg;" vertex="1" parent="1">
          <mxGeometry x="100" y="530" width="68" height="60" as="geometry" />
        </mxCell>
        <mxCell id="5wGyZsGhEu6iggw4Prn2-35" value="App Service&#xa;Instance" style="shape=image;verticalLabelPosition=bottom;labelBackgroundColor=#ffffff;verticalAlign=top;aspect=fixed;imageAspect=0;image=data:image/svg+xml,PHN2ZyB4bWxuczpjYz0iaHR0cDovL2NyZWF0aXZlY29tbW9ucy5vcmcvbnMjIiB4bWxuczpkYz0iaHR0cDovL3B1cmwub3JnL2RjL2VsZW1lbnRzLzEuMS8iIHhtbG5zOmlua3NjYXBlPSJodHRwOi8vd3d3Lmlua3NjYXBlLm9yZy9uYW1lc3BhY2VzL2lua3NjYXBlIiB4bWxuczpyZGY9Imh0dHA6Ly93d3cudzMub3JnLzE5OTkvMDIvMjItcmRmLXN5bnRheC1ucyMiIHhtbG5zOnNvZGlwb2RpPSJodHRwOi8vc29kaXBvZGkuc291cmNlZm9yZ2UubmV0L0RURC9zb2RpcG9kaS0wLmR0ZCIgeG1sbnM6c3ZnPSJodHRwOi8vd3d3LnczLm9yZy8yMDAwL3N2ZyIgeG1sbnM9Imh0dHA6Ly93d3cudzMub3JnLzIwMDAvc3ZnIiB4bWxuczp4bGluaz0iaHR0cDovL3d3dy53My5vcmcvMTk5OS94bGluayIgdmVyc2lvbj0iMS4xIiBpZD0ic3ZnMTU1Mzg3IiBpbmtzY2FwZTp2ZXJzaW9uPSIwLjkyLjMgKDI0MDU1NDYsIDIwMTgtMDMtMTEpIiBzb2RpcG9kaTpkb2NuYW1lPSJhenVyZV9hcHBfc2VydmljZS5zdmciIHg9IjBweCIgeT0iMHB4IiB2aWV3Qm94PSIwIDAgNjYuMzcgNjYuMDUiIHN0eWxlPSJlbmFibGUtYmFja2dyb3VuZDpuZXcgMCAwIDY2LjM3IDY2LjA1OyIgeG1sOnNwYWNlPSJwcmVzZXJ2ZSI+JiN4YTs8c29kaXBvZGk6bmFtZWR2aWV3IGJvcmRlcmNvbG9yPSIjNjY2NjY2IiBib3JkZXJvcGFjaXR5PSIxIiBmaXQtbWFyZ2luLWJvdHRvbT0iMCIgZml0LW1hcmdpbi1sZWZ0PSIwIiBmaXQtbWFyZ2luLXJpZ2h0PSIwIiBmaXQtbWFyZ2luLXRvcD0iMCIgZ3JpZHRvbGVyYW5jZT0iMTAiIGd1aWRldG9sZXJhbmNlPSIxMCIgaWQ9Im5hbWVkdmlldzE1NTM4OSIgaW5rc2NhcGU6Y3VycmVudC1sYXllcj0ic3ZnMTU1Mzg3IiBpbmtzY2FwZTpjeD0iNTUuNTkwNTgzIiBpbmtzY2FwZTpjeT0iMzEuOTM3Mjk2IiBpbmtzY2FwZTpwYWdlb3BhY2l0eT0iMCIgaW5rc2NhcGU6cGFnZXNoYWRvdz0iMiIgaW5rc2NhcGU6d2luZG93LWhlaWdodD0iMTAxNyIgaW5rc2NhcGU6d2luZG93LW1heGltaXplZD0iMSIgaW5rc2NhcGU6d2luZG93LXdpZHRoPSIxOTIwIiBpbmtzY2FwZTp3aW5kb3cteD0iLTgiIGlua3NjYXBlOndpbmRvdy15PSItOCIgaW5rc2NhcGU6em9vbT0iNi45NjEzNzM4IiBvYmplY3R0b2xlcmFuY2U9IjEwIiBwYWdlY29sb3I9IiNmZmZmZmYiIHNob3dncmlkPSJmYWxzZSI+JiN4YTsJPC9zb2RpcG9kaTpuYW1lZHZpZXc+JiN4YTs8ZyBpZD0iZzE1NTM4NSIgdHJhbnNmb3JtPSJ0cmFuc2xhdGUoMCwwLjAwMikiPiYjeGE7CTx0aXRsZSBpZD0idGl0bGUxNTUzNDAiPlBhZ2UtMTwvdGl0bGU+JiN4YTsJPGcgaWQ9Imdyb3VwMzY2Ni0xIj4mI3hhOwkJPHRpdGxlIGlkPSJ0aXRsZTE1NTM0MiI+QXp1cmUgQXBwIFNlcnZpY2U8L3RpdGxlPiYjeGE7CQk8ZyBpZD0ic2hhcGUzNjY3LTIiIHRyYW5zZm9ybT0idHJhbnNsYXRlKDM1LjE3MDgpIj4mI3hhOwkJCTx0aXRsZSBpZD0idGl0bGUxNTUzNDQiPlNoZWV0LjM2Njc8L3RpdGxlPiYjeGE7CQkJPHBhdGggaWQ9InBhdGgxNTUzNDYiIGlua3NjYXBlOmNvbm5lY3Rvci1jdXJ2YXR1cmU9IjAiIHN0eWxlPSJmaWxsOiMzRjU3NjU7IiBkPSJNMTQuMTIsNDguMzNjLTIuMjQsMC04LDAtMTQuMTIsMCAgICAgYzAsMTQuNiwwLDE0LjYsMCwxNC42YzAsMC4xMiwwLDAuMTcsMCwwLjIzczAsMC4wNiwwLDAuMDZjMCwwLjA2LDAsMC4xOCwwLDAuMjRjMC4wNywwLDAuMDcsMCwwLjA3LDAgICAgIGMwLjI0LDEuNDUsMS41MSwyLjU5LDMuMDMsMi41OWMyNC45NiwwLDI0Ljk2LDAsMjQuOTYsMGMxLjc2LDAsMy4xNC0xLjM4LDMuMTQtMy4xMmMwLTI0Ljg0LDAtMjQuODQsMC0yNC44NCAgICAgYzAtMS42OC0xLjM4LTMuMDgtMy4xNC0zLjA4Yy0zLjU4LDAtMy41OCwwLTMuNTgsMGMwLjMsMC45MSwwLjQyLDEuOTQsMC40MiwzLjAyQzI0LjksNDMuOTQsMjAuMTEsNDguMzMsMTQuMTIsNDguMzN6Ii8+JiN4YTsJCTwvZz4mI3hhOwkJPGcgaWQ9InNoYXBlMzY2OC00Ij4mI3hhOwkJCTx0aXRsZSBpZD0idGl0bGUxNTUzNDkiPlNoZWV0LjM2Njg8L3RpdGxlPiYjeGE7CQkJPHBhdGggaWQ9InBhdGgxNTUzNTEiIGlua3NjYXBlOmNvbm5lY3Rvci1jdXJ2YXR1cmU9IjAiIHN0eWxlPSJmaWxsOiMzRjU3NjU7IiBkPSJNNi4zOSwzOC4wM2MwLTEuMDgsMC4xOC0yLjExLDAuNDgtMy4wMiAgICAgYy0zLjc0LDAtMy43NCwwLTMuNzQsMGMtMS41NiwwLTIuODIsMS4wOS0zLjA2LDIuNTNjMCwwLDAsMCwwLDAuMDdjMCwwLjA2LDAsMC4xMi0wLjA3LDAuMThjMCwwLjA2LDAsMC4wNiwwLDAuMDYgICAgIGMwLDAuMDYsMCwwLjE4LDAsMC4yNGMwLDI0Ljg0LDAsMjQuODQsMCwyNC44NGMwLDAuMTIsMCwwLjE3LDAsMC4yM3MwLDAuMDYsMCwwLjA2YzAuMDcsMC4wNiwwLjA3LDAuMTgsMC4wNywwLjI0bDAsMCAgICAgYzAuMjQsMS40NSwxLjUsMi41OSwzLjA2LDIuNTljMjQuODIsMCwyNC44MiwwLDI0LjgyLDBjMS42OCwwLDMuMDYtMS4zOCwzLjA2LTMuMTJjMC0xNC42LDAtMTQuNiwwLTE0LjYgICAgIGMtNS43OCwwLTExLjMxLDAtMTMuOTEsMEMxMS4yLDQ4LjMzLDYuMzksNDMuOTQsNi4zOSwzOC4wM3oiLz4mI3hhOwkJPC9nPiYjeGE7CQk8ZyBpZD0ic2hhcGUzNjY5LTYiIHRyYW5zZm9ybT0idHJhbnNsYXRlKDM1LjE3MDgsLTM1LjAxMikiPiYjeGE7CQkJPHRpdGxlIGlkPSJ0aXRsZTE1NTM1NCI+U2hlZXQuMzY2OTwvdGl0bGU+JiN4YTsJCQk8cGF0aCBpZD0icGF0aDE1NTM1NiIgaW5rc2NhcGU6Y29ubmVjdG9yLWN1cnZhdHVyZT0iMCIgc3R5bGU9ImZpbGw6IzNGNTc2NTsiIGQ9Ik0zMS4yLDYyLjk3YzAtMjQuODcsMC0yNC44NywwLTI0Ljg3ICAgICBjMC0xLjY5LTEuMzgtMy4wOS0zLjE0LTMuMDljLTI0Ljk2LDAtMjQuOTYsMC0yNC45NiwwYy0xLjUyLDAtMi43OSwxLjA5LTMuMDMsMi41NWMwLDAsMCwwLTAuMDcsMGMwLDAuMTEsMCwwLjE3LDAsMC4yM3YwLjA2ICAgICBjMCwwLjA3LDAsMC4xOSwwLDAuMjVjMCwxMS4yOCwwLDExLjI4LDAsMTEuMjhjMS4xLTAuMjksMi4xOS0wLjQxLDMuNC0wLjQxYzcuNTcsMCwxMy43NSw2LjA5LDEzLjc1LDEzLjcxICAgICBjMCwwLjEyLTAuMDYsMC4yOS0wLjA2LDAuNDFjMS45NCwwLjYxLDMuNywxLjYzLDUuMDMsMi45NmM1Ljk0LDAsNS45NCwwLDUuOTQsMEMyOS44Miw2Ni4wNSwzMS4yLDY0LjY3LDMxLjIsNjIuOTd6Ii8+JiN4YTsJCTwvZz4mI3hhOwkJPGcgaWQ9InNoYXBlMzY3MC04IiB0cmFuc2Zvcm09InRyYW5zbGF0ZSgwLC0zNS4wMTIpIj4mI3hhOwkJCTx0aXRsZSBpZD0idGl0bGUxNTUzNTkiPlNoZWV0LjM2NzA8L3RpdGxlPiYjeGE7CQkJPHBhdGggaWQ9InBhdGgxNTUzNjEiIGlua3NjYXBlOmNvbm5lY3Rvci1jdXJ2YXR1cmU9IjAiIHN0eWxlPSJmaWxsOiMzRjU3NjU7IiBkPSJNMTQuODgsNjIuOTJjLTAuMDYtMC40OS0wLjEyLTAuOTctMC4xMi0xLjQ2ICAgICBjMC00LjU5LDMuNjgtOC4zMyw4LjMxLTguMzNjMS42OSwwLDMuMTksMC40OSw0LjUxLDEuMzNjMC45Ny0xLjI3LDIuMTEtMi4zNiwzLjQzLTMuMjVjMC0xMy4xMSwwLTEzLjExLDAtMTMuMTEgICAgIGMwLTEuNjktMS4zOC0zLjA5LTMuMDYtMy4wOWMtMjQuODIsMC0yNC44MiwwLTI0LjgyLDBjLTEuNTYsMC0yLjgyLDEuMDktMy4wNiwyLjU1bDAsMGMwLDAuMTEsMCwwLjE3LTAuMDcsMC4yM3YwLjA2ICAgICBjMCwwLjA3LDAsMC4xOSwwLDAuMjVjMCwyNC44NywwLDI0Ljg3LDAsMjQuODdjMCwwLjA2LDAsMC4xOCwwLDAuMjV2MC4wNmMwLjA3LDAuMDYsMC4wNywwLjEyLDAuMDcsMC4yNGwwLDAgICAgIGMwLjI0LDEuNDUsMS41LDIuNTMsMy4wNiwyLjUzYzUuOTcsMCw1Ljk3LDAsNS45NywwQzEwLjYsNjQuNDksMTIuNTksNjMuNCwxNC44OCw2Mi45MnoiLz4mI3hhOwkJPC9nPiYjeGE7CQk8ZyBpZD0ic2hhcGUzNjcxLTEwIiB0cmFuc2Zvcm09InRyYW5zbGF0ZSgzNS4xNzA4LC0xNy43ODk5KSI+JiN4YTsJCQk8dGl0bGUgaWQ9InRpdGxlMTU1MzY0Ij5TaGVldC4zNjcxPC90aXRsZT4mI3hhOwkJCTxwYXRoIGlkPSJwYXRoMTU1MzY2IiBpbmtzY2FwZTpjb25uZWN0b3ItY3VydmF0dXJlPSIwIiBzdHlsZT0iZmlsbDojRkZGRkZGOyIgZD0iTTAuMDcsNTUuMzJjMCwwLDAsMC0wLjA3LDAuMDYgICAgIGMwLDAuMDYsMCwwLjEzLDAsMC4xOWMwLDAuMDYsMCwwLjA2LDAsMC4wNmMwLDAuMDYsMCwwLjE4LDAsMC4yNGMwLDEwLjE4LDAsMTAuMTgsMCwxMC4xOGM2LjEzLDAsMTEuOTEsMCwxNC4xNiwwICAgICBjNi4wMSwwLDEwLjgtNC4zNywxMC44LTEwLjI0YzAtMS4wOC0wLjEyLTIuMTEtMC40My0zLjAxYy0yMS40MiwwLTIxLjQyLDAtMjEuNDIsMEMxLjU4LDUyLjgsMC4zMSw1My44OSwwLjA3LDU1LjMyeiIvPiYjeGE7CQk8L2c+JiN4YTsJCTxnIGlkPSJzaGFwZTM2NzItMTIiIHRyYW5zZm9ybT0idHJhbnNsYXRlKDYuNDI5MDcsLTE3Ljc4OTkpIj4mI3hhOwkJCTx0aXRsZSBpZD0idGl0bGUxNTUzNjkiPlNoZWV0LjM2NzI8L3RpdGxlPiYjeGE7CQkJPHBhdGggaWQ9InBhdGgxNTUzNzEiIGlua3NjYXBlOmNvbm5lY3Rvci1jdXJ2YXR1cmU9IjAiIHN0eWxlPSJmaWxsOiNGRkZGRkY7IiBkPSJNMjEuNTIsNTIuOGMtMjEuMDQsMC0yMS4wNCwwLTIxLjA0LDAgICAgIEMwLjE5LDUzLjcsMCw1NC43MywwLDU1LjgxYzAsNS44Nyw0LjgxLDEwLjI0LDEwLjcxLDEwLjI0YzIuNTcsMCw4LjEsMCwxMy44NywwYzAtMTAuMTgsMC0xMC4xOCwwLTEwLjE4ICAgICBDMjQuNTgsNTQuMTksMjMuMjEsNTIuOCwyMS41Miw1Mi44eiIvPiYjeGE7CQk8L2c+JiN4YTsJCTxnIGlkPSJzaGFwZTM2NzMtMTQiIHRyYW5zZm9ybT0idHJhbnNsYXRlKDM1LjE3MDgsLTM1LjAxMikiPiYjeGE7CQkJPHRpdGxlIGlkPSJ0aXRsZTE1NTM3NCI+U2hlZXQuMzY3MzwvdGl0bGU+JiN4YTsJCQk8cGF0aCBpZD0icGF0aDE1NTM3NiIgaW5rc2NhcGU6Y29ubmVjdG9yLWN1cnZhdHVyZT0iMCIgc3R5bGU9ImZpbGw6I0ZGRkZGRjsiIGQ9Ik0xNy4xNiw2Mi42OWMwLTcuNTktNi4xOC0xMy42Ny0xMy43Ni0xMy42NyAgICAgYy0xLjIxLDAtMi4zLDAuMTMtMy40LDAuNDJjMCwxMy41NSwwLDEzLjU1LDAsMTMuNTVjMCwwLjA2LDAsMC4xNywwLDAuMjN2MC4wNmMwLDAuMDYsMCwwLjEzLDAsMC4yNWMwLjA3LDAsMC4wNywwLDAuMDcsMCAgICAgYzAuMjQsMS40NCwxLjUxLDIuNTIsMy4wMywyLjUyYzE5LjAyLDAsMTkuMDIsMCwxOS4wMiwwYy0xLjMyLTEuMzEtMy4wOC0yLjM0LTUuMDItMi45NUMxNy4xLDYyLjk5LDE3LjE2LDYyLjgxLDE3LjE2LDYyLjY5eiIvPiYjeGE7CQk8L2c+JiN4YTsJCTxnIGlkPSJzaGFwZTM2NzQtMTYiIHRyYW5zZm9ybT0idHJhbnNsYXRlKDkuMDc2MzQsLTM1LjAxMikiPiYjeGE7CQkJPHRpdGxlIGlkPSJ0aXRsZTE1NTM3OSI+U2hlZXQuMzY3NDwvdGl0bGU+JiN4YTsJCQk8cGF0aCBpZD0icGF0aDE1NTM4MSIgaW5rc2NhcGU6Y29ubmVjdG9yLWN1cnZhdHVyZT0iMCIgc3R5bGU9ImZpbGw6I0ZGRkZGRjsiIGQ9Ik0yMS45Myw2Mi45NWMwLTExLjg1LDAtMTEuODUsMC0xMS44NSAgICAgYy0xLjMyLDAuOTItMi40NywyLjAxLTMuNDIsMy4yOWMtMS4zMy0wLjg1LTIuODQtMS4zNC00LjUzLTEuMzRjLTQuNjMsMC04LjMxLDMuNzYtOC4zMSw4LjM5YzAsMC40OCwwLjA2LDAuOTcsMC4xMiwxLjQ1ICAgICBDMy41LDYzLjM4LDEuNTEsNjQuNDgsMCw2Ni4wNWMxOC44NiwwLDE4Ljg2LDAsMTguODYsMEMyMC41NSw2Ni4wNSwyMS45Myw2NC42NSwyMS45Myw2Mi45NXoiLz4mI3hhOwkJPC9nPiYjeGE7CTwvZz4mI3hhOzwvZz4mI3hhOzwvc3ZnPg==;" vertex="1" parent="1">
          <mxGeometry x="620" y="280" width="50" height="50" as="geometry" />
        </mxCell>
        <mxCell id="5wGyZsGhEu6iggw4Prn2-36" value="App Service&#xa;Instance" style="shape=image;verticalLabelPosition=bottom;labelBackgroundColor=#ffffff;verticalAlign=top;aspect=fixed;imageAspect=0;image=data:image/svg+xml,PHN2ZyB4bWxuczpjYz0iaHR0cDovL2NyZWF0aXZlY29tbW9ucy5vcmcvbnMjIiB4bWxuczpkYz0iaHR0cDovL3B1cmwub3JnL2RjL2VsZW1lbnRzLzEuMS8iIHhtbG5zOmlua3NjYXBlPSJodHRwOi8vd3d3Lmlua3NjYXBlLm9yZy9uYW1lc3BhY2VzL2lua3NjYXBlIiB4bWxuczpyZGY9Imh0dHA6Ly93d3cudzMub3JnLzE5OTkvMDIvMjItcmRmLXN5bnRheC1ucyMiIHhtbG5zOnNvZGlwb2RpPSJodHRwOi8vc29kaXBvZGkuc291cmNlZm9yZ2UubmV0L0RURC9zb2RpcG9kaS0wLmR0ZCIgeG1sbnM6c3ZnPSJodHRwOi8vd3d3LnczLm9yZy8yMDAwL3N2ZyIgeG1sbnM9Imh0dHA6Ly93d3cudzMub3JnLzIwMDAvc3ZnIiB4bWxuczp4bGluaz0iaHR0cDovL3d3dy53My5vcmcvMTk5OS94bGluayIgdmVyc2lvbj0iMS4xIiBpZD0ic3ZnMTU1Mzg3IiBpbmtzY2FwZTp2ZXJzaW9uPSIwLjkyLjMgKDI0MDU1NDYsIDIwMTgtMDMtMTEpIiBzb2RpcG9kaTpkb2NuYW1lPSJhenVyZV9hcHBfc2VydmljZS5zdmciIHg9IjBweCIgeT0iMHB4IiB2aWV3Qm94PSIwIDAgNjYuMzcgNjYuMDUiIHN0eWxlPSJlbmFibGUtYmFja2dyb3VuZDpuZXcgMCAwIDY2LjM3IDY2LjA1OyIgeG1sOnNwYWNlPSJwcmVzZXJ2ZSI+JiN4YTs8c29kaXBvZGk6bmFtZWR2aWV3IGJvcmRlcmNvbG9yPSIjNjY2NjY2IiBib3JkZXJvcGFjaXR5PSIxIiBmaXQtbWFyZ2luLWJvdHRvbT0iMCIgZml0LW1hcmdpbi1sZWZ0PSIwIiBmaXQtbWFyZ2luLXJpZ2h0PSIwIiBmaXQtbWFyZ2luLXRvcD0iMCIgZ3JpZHRvbGVyYW5jZT0iMTAiIGd1aWRldG9sZXJhbmNlPSIxMCIgaWQ9Im5hbWVkdmlldzE1NTM4OSIgaW5rc2NhcGU6Y3VycmVudC1sYXllcj0ic3ZnMTU1Mzg3IiBpbmtzY2FwZTpjeD0iNTUuNTkwNTgzIiBpbmtzY2FwZTpjeT0iMzEuOTM3Mjk2IiBpbmtzY2FwZTpwYWdlb3BhY2l0eT0iMCIgaW5rc2NhcGU6cGFnZXNoYWRvdz0iMiIgaW5rc2NhcGU6d2luZG93LWhlaWdodD0iMTAxNyIgaW5rc2NhcGU6d2luZG93LW1heGltaXplZD0iMSIgaW5rc2NhcGU6d2luZG93LXdpZHRoPSIxOTIwIiBpbmtzY2FwZTp3aW5kb3cteD0iLTgiIGlua3NjYXBlOndpbmRvdy15PSItOCIgaW5rc2NhcGU6em9vbT0iNi45NjEzNzM4IiBvYmplY3R0b2xlcmFuY2U9IjEwIiBwYWdlY29sb3I9IiNmZmZmZmYiIHNob3dncmlkPSJmYWxzZSI+JiN4YTsJPC9zb2RpcG9kaTpuYW1lZHZpZXc+JiN4YTs8ZyBpZD0iZzE1NTM4NSIgdHJhbnNmb3JtPSJ0cmFuc2xhdGUoMCwwLjAwMikiPiYjeGE7CTx0aXRsZSBpZD0idGl0bGUxNTUzNDAiPlBhZ2UtMTwvdGl0bGU+JiN4YTsJPGcgaWQ9Imdyb3VwMzY2Ni0xIj4mI3hhOwkJPHRpdGxlIGlkPSJ0aXRsZTE1NTM0MiI+QXp1cmUgQXBwIFNlcnZpY2U8L3RpdGxlPiYjeGE7CQk8ZyBpZD0ic2hhcGUzNjY3LTIiIHRyYW5zZm9ybT0idHJhbnNsYXRlKDM1LjE3MDgpIj4mI3hhOwkJCTx0aXRsZSBpZD0idGl0bGUxNTUzNDQiPlNoZWV0LjM2Njc8L3RpdGxlPiYjeGE7CQkJPHBhdGggaWQ9InBhdGgxNTUzNDYiIGlua3NjYXBlOmNvbm5lY3Rvci1jdXJ2YXR1cmU9IjAiIHN0eWxlPSJmaWxsOiMzRjU3NjU7IiBkPSJNMTQuMTIsNDguMzNjLTIuMjQsMC04LDAtMTQuMTIsMCAgICAgYzAsMTQuNiwwLDE0LjYsMCwxNC42YzAsMC4xMiwwLDAuMTcsMCwwLjIzczAsMC4wNiwwLDAuMDZjMCwwLjA2LDAsMC4xOCwwLDAuMjRjMC4wNywwLDAuMDcsMCwwLjA3LDAgICAgIGMwLjI0LDEuNDUsMS41MSwyLjU5LDMuMDMsMi41OWMyNC45NiwwLDI0Ljk2LDAsMjQuOTYsMGMxLjc2LDAsMy4xNC0xLjM4LDMuMTQtMy4xMmMwLTI0Ljg0LDAtMjQuODQsMC0yNC44NCAgICAgYzAtMS42OC0xLjM4LTMuMDgtMy4xNC0zLjA4Yy0zLjU4LDAtMy41OCwwLTMuNTgsMGMwLjMsMC45MSwwLjQyLDEuOTQsMC40MiwzLjAyQzI0LjksNDMuOTQsMjAuMTEsNDguMzMsMTQuMTIsNDguMzN6Ii8+JiN4YTsJCTwvZz4mI3hhOwkJPGcgaWQ9InNoYXBlMzY2OC00Ij4mI3hhOwkJCTx0aXRsZSBpZD0idGl0bGUxNTUzNDkiPlNoZWV0LjM2Njg8L3RpdGxlPiYjeGE7CQkJPHBhdGggaWQ9InBhdGgxNTUzNTEiIGlua3NjYXBlOmNvbm5lY3Rvci1jdXJ2YXR1cmU9IjAiIHN0eWxlPSJmaWxsOiMzRjU3NjU7IiBkPSJNNi4zOSwzOC4wM2MwLTEuMDgsMC4xOC0yLjExLDAuNDgtMy4wMiAgICAgYy0zLjc0LDAtMy43NCwwLTMuNzQsMGMtMS41NiwwLTIuODIsMS4wOS0zLjA2LDIuNTNjMCwwLDAsMCwwLDAuMDdjMCwwLjA2LDAsMC4xMi0wLjA3LDAuMThjMCwwLjA2LDAsMC4wNiwwLDAuMDYgICAgIGMwLDAuMDYsMCwwLjE4LDAsMC4yNGMwLDI0Ljg0LDAsMjQuODQsMCwyNC44NGMwLDAuMTIsMCwwLjE3LDAsMC4yM3MwLDAuMDYsMCwwLjA2YzAuMDcsMC4wNiwwLjA3LDAuMTgsMC4wNywwLjI0bDAsMCAgICAgYzAuMjQsMS40NSwxLjUsMi41OSwzLjA2LDIuNTljMjQuODIsMCwyNC44MiwwLDI0LjgyLDBjMS42OCwwLDMuMDYtMS4zOCwzLjA2LTMuMTJjMC0xNC42LDAtMTQuNiwwLTE0LjYgICAgIGMtNS43OCwwLTExLjMxLDAtMTMuOTEsMEMxMS4yLDQ4LjMzLDYuMzksNDMuOTQsNi4zOSwzOC4wM3oiLz4mI3hhOwkJPC9nPiYjeGE7CQk8ZyBpZD0ic2hhcGUzNjY5LTYiIHRyYW5zZm9ybT0idHJhbnNsYXRlKDM1LjE3MDgsLTM1LjAxMikiPiYjeGE7CQkJPHRpdGxlIGlkPSJ0aXRsZTE1NTM1NCI+U2hlZXQuMzY2OTwvdGl0bGU+JiN4YTsJCQk8cGF0aCBpZD0icGF0aDE1NTM1NiIgaW5rc2NhcGU6Y29ubmVjdG9yLWN1cnZhdHVyZT0iMCIgc3R5bGU9ImZpbGw6IzNGNTc2NTsiIGQ9Ik0zMS4yLDYyLjk3YzAtMjQuODcsMC0yNC44NywwLTI0Ljg3ICAgICBjMC0xLjY5LTEuMzgtMy4wOS0zLjE0LTMuMDljLTI0Ljk2LDAtMjQuOTYsMC0yNC45NiwwYy0xLjUyLDAtMi43OSwxLjA5LTMuMDMsMi41NWMwLDAsMCwwLTAuMDcsMGMwLDAuMTEsMCwwLjE3LDAsMC4yM3YwLjA2ICAgICBjMCwwLjA3LDAsMC4xOSwwLDAuMjVjMCwxMS4yOCwwLDExLjI4LDAsMTEuMjhjMS4xLTAuMjksMi4xOS0wLjQxLDMuNC0wLjQxYzcuNTcsMCwxMy43NSw2LjA5LDEzLjc1LDEzLjcxICAgICBjMCwwLjEyLTAuMDYsMC4yOS0wLjA2LDAuNDFjMS45NCwwLjYxLDMuNywxLjYzLDUuMDMsMi45NmM1Ljk0LDAsNS45NCwwLDUuOTQsMEMyOS44Miw2Ni4wNSwzMS4yLDY0LjY3LDMxLjIsNjIuOTd6Ii8+JiN4YTsJCTwvZz4mI3hhOwkJPGcgaWQ9InNoYXBlMzY3MC04IiB0cmFuc2Zvcm09InRyYW5zbGF0ZSgwLC0zNS4wMTIpIj4mI3hhOwkJCTx0aXRsZSBpZD0idGl0bGUxNTUzNTkiPlNoZWV0LjM2NzA8L3RpdGxlPiYjeGE7CQkJPHBhdGggaWQ9InBhdGgxNTUzNjEiIGlua3NjYXBlOmNvbm5lY3Rvci1jdXJ2YXR1cmU9IjAiIHN0eWxlPSJmaWxsOiMzRjU3NjU7IiBkPSJNMTQuODgsNjIuOTJjLTAuMDYtMC40OS0wLjEyLTAuOTctMC4xMi0xLjQ2ICAgICBjMC00LjU5LDMuNjgtOC4zMyw4LjMxLTguMzNjMS42OSwwLDMuMTksMC40OSw0LjUxLDEuMzNjMC45Ny0xLjI3LDIuMTEtMi4zNiwzLjQzLTMuMjVjMC0xMy4xMSwwLTEzLjExLDAtMTMuMTEgICAgIGMwLTEuNjktMS4zOC0zLjA5LTMuMDYtMy4wOWMtMjQuODIsMC0yNC44MiwwLTI0LjgyLDBjLTEuNTYsMC0yLjgyLDEuMDktMy4wNiwyLjU1bDAsMGMwLDAuMTEsMCwwLjE3LTAuMDcsMC4yM3YwLjA2ICAgICBjMCwwLjA3LDAsMC4xOSwwLDAuMjVjMCwyNC44NywwLDI0Ljg3LDAsMjQuODdjMCwwLjA2LDAsMC4xOCwwLDAuMjV2MC4wNmMwLjA3LDAuMDYsMC4wNywwLjEyLDAuMDcsMC4yNGwwLDAgICAgIGMwLjI0LDEuNDUsMS41LDIuNTMsMy4wNiwyLjUzYzUuOTcsMCw1Ljk3LDAsNS45NywwQzEwLjYsNjQuNDksMTIuNTksNjMuNCwxNC44OCw2Mi45MnoiLz4mI3hhOwkJPC9nPiYjeGE7CQk8ZyBpZD0ic2hhcGUzNjcxLTEwIiB0cmFuc2Zvcm09InRyYW5zbGF0ZSgzNS4xNzA4LC0xNy43ODk5KSI+JiN4YTsJCQk8dGl0bGUgaWQ9InRpdGxlMTU1MzY0Ij5TaGVldC4zNjcxPC90aXRsZT4mI3hhOwkJCTxwYXRoIGlkPSJwYXRoMTU1MzY2IiBpbmtzY2FwZTpjb25uZWN0b3ItY3VydmF0dXJlPSIwIiBzdHlsZT0iZmlsbDojRkZGRkZGOyIgZD0iTTAuMDcsNTUuMzJjMCwwLDAsMC0wLjA3LDAuMDYgICAgIGMwLDAuMDYsMCwwLjEzLDAsMC4xOWMwLDAuMDYsMCwwLjA2LDAsMC4wNmMwLDAuMDYsMCwwLjE4LDAsMC4yNGMwLDEwLjE4LDAsMTAuMTgsMCwxMC4xOGM2LjEzLDAsMTEuOTEsMCwxNC4xNiwwICAgICBjNi4wMSwwLDEwLjgtNC4zNywxMC44LTEwLjI0YzAtMS4wOC0wLjEyLTIuMTEtMC40My0zLjAxYy0yMS40MiwwLTIxLjQyLDAtMjEuNDIsMEMxLjU4LDUyLjgsMC4zMSw1My44OSwwLjA3LDU1LjMyeiIvPiYjeGE7CQk8L2c+JiN4YTsJCTxnIGlkPSJzaGFwZTM2NzItMTIiIHRyYW5zZm9ybT0idHJhbnNsYXRlKDYuNDI5MDcsLTE3Ljc4OTkpIj4mI3hhOwkJCTx0aXRsZSBpZD0idGl0bGUxNTUzNjkiPlNoZWV0LjM2NzI8L3RpdGxlPiYjeGE7CQkJPHBhdGggaWQ9InBhdGgxNTUzNzEiIGlua3NjYXBlOmNvbm5lY3Rvci1jdXJ2YXR1cmU9IjAiIHN0eWxlPSJmaWxsOiNGRkZGRkY7IiBkPSJNMjEuNTIsNTIuOGMtMjEuMDQsMC0yMS4wNCwwLTIxLjA0LDAgICAgIEMwLjE5LDUzLjcsMCw1NC43MywwLDU1LjgxYzAsNS44Nyw0LjgxLDEwLjI0LDEwLjcxLDEwLjI0YzIuNTcsMCw4LjEsMCwxMy44NywwYzAtMTAuMTgsMC0xMC4xOCwwLTEwLjE4ICAgICBDMjQuNTgsNTQuMTksMjMuMjEsNTIuOCwyMS41Miw1Mi44eiIvPiYjeGE7CQk8L2c+JiN4YTsJCTxnIGlkPSJzaGFwZTM2NzMtMTQiIHRyYW5zZm9ybT0idHJhbnNsYXRlKDM1LjE3MDgsLTM1LjAxMikiPiYjeGE7CQkJPHRpdGxlIGlkPSJ0aXRsZTE1NTM3NCI+U2hlZXQuMzY3MzwvdGl0bGU+JiN4YTsJCQk8cGF0aCBpZD0icGF0aDE1NTM3NiIgaW5rc2NhcGU6Y29ubmVjdG9yLWN1cnZhdHVyZT0iMCIgc3R5bGU9ImZpbGw6I0ZGRkZGRjsiIGQ9Ik0xNy4xNiw2Mi42OWMwLTcuNTktNi4xOC0xMy42Ny0xMy43Ni0xMy42NyAgICAgYy0xLjIxLDAtMi4zLDAuMTMtMy40LDAuNDJjMCwxMy41NSwwLDEzLjU1LDAsMTMuNTVjMCwwLjA2LDAsMC4xNywwLDAuMjN2MC4wNmMwLDAuMDYsMCwwLjEzLDAsMC4yNWMwLjA3LDAsMC4wNywwLDAuMDcsMCAgICAgYzAuMjQsMS40NCwxLjUxLDIuNTIsMy4wMywyLjUyYzE5LjAyLDAsMTkuMDIsMCwxOS4wMiwwYy0xLjMyLTEuMzEtMy4wOC0yLjM0LTUuMDItMi45NUMxNy4xLDYyLjk5LDE3LjE2LDYyLjgxLDE3LjE2LDYyLjY5eiIvPiYjeGE7CQk8L2c+JiN4YTsJCTxnIGlkPSJzaGFwZTM2NzQtMTYiIHRyYW5zZm9ybT0idHJhbnNsYXRlKDkuMDc2MzQsLTM1LjAxMikiPiYjeGE7CQkJPHRpdGxlIGlkPSJ0aXRsZTE1NTM3OSI+U2hlZXQuMzY3NDwvdGl0bGU+JiN4YTsJCQk8cGF0aCBpZD0icGF0aDE1NTM4MSIgaW5rc2NhcGU6Y29ubmVjdG9yLWN1cnZhdHVyZT0iMCIgc3R5bGU9ImZpbGw6I0ZGRkZGRjsiIGQ9Ik0yMS45Myw2Mi45NWMwLTExLjg1LDAtMTEuODUsMC0xMS44NSAgICAgYy0xLjMyLDAuOTItMi40NywyLjAxLTMuNDIsMy4yOWMtMS4zMy0wLjg1LTIuODQtMS4zNC00LjUzLTEuMzRjLTQuNjMsMC04LjMxLDMuNzYtOC4zMSw4LjM5YzAsMC40OCwwLjA2LDAuOTcsMC4xMiwxLjQ1ICAgICBDMy41LDYzLjM4LDEuNTEsNjQuNDgsMCw2Ni4wNWMxOC44NiwwLDE4Ljg2LDAsMTguODYsMEMyMC41NSw2Ni4wNSwyMS45Myw2NC42NSwyMS45Myw2Mi45NXoiLz4mI3hhOwkJPC9nPiYjeGE7CTwvZz4mI3hhOzwvZz4mI3hhOzwvc3ZnPg==;" vertex="1" parent="1">
          <mxGeometry x="678" y="280" width="50" height="50" as="geometry" />
        </mxCell>
        <mxCell id="5wGyZsGhEu6iggw4Prn2-37" value="App Service&#xa;Instance" style="shape=image;verticalLabelPosition=bottom;labelBackgroundColor=#ffffff;verticalAlign=top;aspect=fixed;imageAspect=0;image=data:image/svg+xml,PHN2ZyB4bWxuczpjYz0iaHR0cDovL2NyZWF0aXZlY29tbW9ucy5vcmcvbnMjIiB4bWxuczpkYz0iaHR0cDovL3B1cmwub3JnL2RjL2VsZW1lbnRzLzEuMS8iIHhtbG5zOmlua3NjYXBlPSJodHRwOi8vd3d3Lmlua3NjYXBlLm9yZy9uYW1lc3BhY2VzL2lua3NjYXBlIiB4bWxuczpyZGY9Imh0dHA6Ly93d3cudzMub3JnLzE5OTkvMDIvMjItcmRmLXN5bnRheC1ucyMiIHhtbG5zOnNvZGlwb2RpPSJodHRwOi8vc29kaXBvZGkuc291cmNlZm9yZ2UubmV0L0RURC9zb2RpcG9kaS0wLmR0ZCIgeG1sbnM6c3ZnPSJodHRwOi8vd3d3LnczLm9yZy8yMDAwL3N2ZyIgeG1sbnM9Imh0dHA6Ly93d3cudzMub3JnLzIwMDAvc3ZnIiB4bWxuczp4bGluaz0iaHR0cDovL3d3dy53My5vcmcvMTk5OS94bGluayIgdmVyc2lvbj0iMS4xIiBpZD0ic3ZnMTU1Mzg3IiBpbmtzY2FwZTp2ZXJzaW9uPSIwLjkyLjMgKDI0MDU1NDYsIDIwMTgtMDMtMTEpIiBzb2RpcG9kaTpkb2NuYW1lPSJhenVyZV9hcHBfc2VydmljZS5zdmciIHg9IjBweCIgeT0iMHB4IiB2aWV3Qm94PSIwIDAgNjYuMzcgNjYuMDUiIHN0eWxlPSJlbmFibGUtYmFja2dyb3VuZDpuZXcgMCAwIDY2LjM3IDY2LjA1OyIgeG1sOnNwYWNlPSJwcmVzZXJ2ZSI+JiN4YTs8c29kaXBvZGk6bmFtZWR2aWV3IGJvcmRlcmNvbG9yPSIjNjY2NjY2IiBib3JkZXJvcGFjaXR5PSIxIiBmaXQtbWFyZ2luLWJvdHRvbT0iMCIgZml0LW1hcmdpbi1sZWZ0PSIwIiBmaXQtbWFyZ2luLXJpZ2h0PSIwIiBmaXQtbWFyZ2luLXRvcD0iMCIgZ3JpZHRvbGVyYW5jZT0iMTAiIGd1aWRldG9sZXJhbmNlPSIxMCIgaWQ9Im5hbWVkdmlldzE1NTM4OSIgaW5rc2NhcGU6Y3VycmVudC1sYXllcj0ic3ZnMTU1Mzg3IiBpbmtzY2FwZTpjeD0iNTUuNTkwNTgzIiBpbmtzY2FwZTpjeT0iMzEuOTM3Mjk2IiBpbmtzY2FwZTpwYWdlb3BhY2l0eT0iMCIgaW5rc2NhcGU6cGFnZXNoYWRvdz0iMiIgaW5rc2NhcGU6d2luZG93LWhlaWdodD0iMTAxNyIgaW5rc2NhcGU6d2luZG93LW1heGltaXplZD0iMSIgaW5rc2NhcGU6d2luZG93LXdpZHRoPSIxOTIwIiBpbmtzY2FwZTp3aW5kb3cteD0iLTgiIGlua3NjYXBlOndpbmRvdy15PSItOCIgaW5rc2NhcGU6em9vbT0iNi45NjEzNzM4IiBvYmplY3R0b2xlcmFuY2U9IjEwIiBwYWdlY29sb3I9IiNmZmZmZmYiIHNob3dncmlkPSJmYWxzZSI+JiN4YTsJPC9zb2RpcG9kaTpuYW1lZHZpZXc+JiN4YTs8ZyBpZD0iZzE1NTM4NSIgdHJhbnNmb3JtPSJ0cmFuc2xhdGUoMCwwLjAwMikiPiYjeGE7CTx0aXRsZSBpZD0idGl0bGUxNTUzNDAiPlBhZ2UtMTwvdGl0bGU+JiN4YTsJPGcgaWQ9Imdyb3VwMzY2Ni0xIj4mI3hhOwkJPHRpdGxlIGlkPSJ0aXRsZTE1NTM0MiI+QXp1cmUgQXBwIFNlcnZpY2U8L3RpdGxlPiYjeGE7CQk8ZyBpZD0ic2hhcGUzNjY3LTIiIHRyYW5zZm9ybT0idHJhbnNsYXRlKDM1LjE3MDgpIj4mI3hhOwkJCTx0aXRsZSBpZD0idGl0bGUxNTUzNDQiPlNoZWV0LjM2Njc8L3RpdGxlPiYjeGE7CQkJPHBhdGggaWQ9InBhdGgxNTUzNDYiIGlua3NjYXBlOmNvbm5lY3Rvci1jdXJ2YXR1cmU9IjAiIHN0eWxlPSJmaWxsOiMzRjU3NjU7IiBkPSJNMTQuMTIsNDguMzNjLTIuMjQsMC04LDAtMTQuMTIsMCAgICAgYzAsMTQuNiwwLDE0LjYsMCwxNC42YzAsMC4xMiwwLDAuMTcsMCwwLjIzczAsMC4wNiwwLDAuMDZjMCwwLjA2LDAsMC4xOCwwLDAuMjRjMC4wNywwLDAuMDcsMCwwLjA3LDAgICAgIGMwLjI0LDEuNDUsMS41MSwyLjU5LDMuMDMsMi41OWMyNC45NiwwLDI0Ljk2LDAsMjQuOTYsMGMxLjc2LDAsMy4xNC0xLjM4LDMuMTQtMy4xMmMwLTI0Ljg0LDAtMjQuODQsMC0yNC44NCAgICAgYzAtMS42OC0xLjM4LTMuMDgtMy4xNC0zLjA4Yy0zLjU4LDAtMy41OCwwLTMuNTgsMGMwLjMsMC45MSwwLjQyLDEuOTQsMC40MiwzLjAyQzI0LjksNDMuOTQsMjAuMTEsNDguMzMsMTQuMTIsNDguMzN6Ii8+JiN4YTsJCTwvZz4mI3hhOwkJPGcgaWQ9InNoYXBlMzY2OC00Ij4mI3hhOwkJCTx0aXRsZSBpZD0idGl0bGUxNTUzNDkiPlNoZWV0LjM2Njg8L3RpdGxlPiYjeGE7CQkJPHBhdGggaWQ9InBhdGgxNTUzNTEiIGlua3NjYXBlOmNvbm5lY3Rvci1jdXJ2YXR1cmU9IjAiIHN0eWxlPSJmaWxsOiMzRjU3NjU7IiBkPSJNNi4zOSwzOC4wM2MwLTEuMDgsMC4xOC0yLjExLDAuNDgtMy4wMiAgICAgYy0zLjc0LDAtMy43NCwwLTMuNzQsMGMtMS41NiwwLTIuODIsMS4wOS0zLjA2LDIuNTNjMCwwLDAsMCwwLDAuMDdjMCwwLjA2LDAsMC4xMi0wLjA3LDAuMThjMCwwLjA2LDAsMC4wNiwwLDAuMDYgICAgIGMwLDAuMDYsMCwwLjE4LDAsMC4yNGMwLDI0Ljg0LDAsMjQuODQsMCwyNC44NGMwLDAuMTIsMCwwLjE3LDAsMC4yM3MwLDAuMDYsMCwwLjA2YzAuMDcsMC4wNiwwLjA3LDAuMTgsMC4wNywwLjI0bDAsMCAgICAgYzAuMjQsMS40NSwxLjUsMi41OSwzLjA2LDIuNTljMjQuODIsMCwyNC44MiwwLDI0LjgyLDBjMS42OCwwLDMuMDYtMS4zOCwzLjA2LTMuMTJjMC0xNC42LDAtMTQuNiwwLTE0LjYgICAgIGMtNS43OCwwLTExLjMxLDAtMTMuOTEsMEMxMS4yLDQ4LjMzLDYuMzksNDMuOTQsNi4zOSwzOC4wM3oiLz4mI3hhOwkJPC9nPiYjeGE7CQk8ZyBpZD0ic2hhcGUzNjY5LTYiIHRyYW5zZm9ybT0idHJhbnNsYXRlKDM1LjE3MDgsLTM1LjAxMikiPiYjeGE7CQkJPHRpdGxlIGlkPSJ0aXRsZTE1NTM1NCI+U2hlZXQuMzY2OTwvdGl0bGU+JiN4YTsJCQk8cGF0aCBpZD0icGF0aDE1NTM1NiIgaW5rc2NhcGU6Y29ubmVjdG9yLWN1cnZhdHVyZT0iMCIgc3R5bGU9ImZpbGw6IzNGNTc2NTsiIGQ9Ik0zMS4yLDYyLjk3YzAtMjQuODcsMC0yNC44NywwLTI0Ljg3ICAgICBjMC0xLjY5LTEuMzgtMy4wOS0zLjE0LTMuMDljLTI0Ljk2LDAtMjQuOTYsMC0yNC45NiwwYy0xLjUyLDAtMi43OSwxLjA5LTMuMDMsMi41NWMwLDAsMCwwLTAuMDcsMGMwLDAuMTEsMCwwLjE3LDAsMC4yM3YwLjA2ICAgICBjMCwwLjA3LDAsMC4xOSwwLDAuMjVjMCwxMS4yOCwwLDExLjI4LDAsMTEuMjhjMS4xLTAuMjksMi4xOS0wLjQxLDMuNC0wLjQxYzcuNTcsMCwxMy43NSw2LjA5LDEzLjc1LDEzLjcxICAgICBjMCwwLjEyLTAuMDYsMC4yOS0wLjA2LDAuNDFjMS45NCwwLjYxLDMuNywxLjYzLDUuMDMsMi45NmM1Ljk0LDAsNS45NCwwLDUuOTQsMEMyOS44Miw2Ni4wNSwzMS4yLDY0LjY3LDMxLjIsNjIuOTd6Ii8+JiN4YTsJCTwvZz4mI3hhOwkJPGcgaWQ9InNoYXBlMzY3MC04IiB0cmFuc2Zvcm09InRyYW5zbGF0ZSgwLC0zNS4wMTIpIj4mI3hhOwkJCTx0aXRsZSBpZD0idGl0bGUxNTUzNTkiPlNoZWV0LjM2NzA8L3RpdGxlPiYjeGE7CQkJPHBhdGggaWQ9InBhdGgxNTUzNjEiIGlua3NjYXBlOmNvbm5lY3Rvci1jdXJ2YXR1cmU9IjAiIHN0eWxlPSJmaWxsOiMzRjU3NjU7IiBkPSJNMTQuODgsNjIuOTJjLTAuMDYtMC40OS0wLjEyLTAuOTctMC4xMi0xLjQ2ICAgICBjMC00LjU5LDMuNjgtOC4zMyw4LjMxLTguMzNjMS42OSwwLDMuMTksMC40OSw0LjUxLDEuMzNjMC45Ny0xLjI3LDIuMTEtMi4zNiwzLjQzLTMuMjVjMC0xMy4xMSwwLTEzLjExLDAtMTMuMTEgICAgIGMwLTEuNjktMS4zOC0zLjA5LTMuMDYtMy4wOWMtMjQuODIsMC0yNC44MiwwLTI0LjgyLDBjLTEuNTYsMC0yLjgyLDEuMDktMy4wNiwyLjU1bDAsMGMwLDAuMTEsMCwwLjE3LTAuMDcsMC4yM3YwLjA2ICAgICBjMCwwLjA3LDAsMC4xOSwwLDAuMjVjMCwyNC44NywwLDI0Ljg3LDAsMjQuODdjMCwwLjA2LDAsMC4xOCwwLDAuMjV2MC4wNmMwLjA3LDAuMDYsMC4wNywwLjEyLDAuMDcsMC4yNGwwLDAgICAgIGMwLjI0LDEuNDUsMS41LDIuNTMsMy4wNiwyLjUzYzUuOTcsMCw1Ljk3LDAsNS45NywwQzEwLjYsNjQuNDksMTIuNTksNjMuNCwxNC44OCw2Mi45MnoiLz4mI3hhOwkJPC9nPiYjeGE7CQk8ZyBpZD0ic2hhcGUzNjcxLTEwIiB0cmFuc2Zvcm09InRyYW5zbGF0ZSgzNS4xNzA4LC0xNy43ODk5KSI+JiN4YTsJCQk8dGl0bGUgaWQ9InRpdGxlMTU1MzY0Ij5TaGVldC4zNjcxPC90aXRsZT4mI3hhOwkJCTxwYXRoIGlkPSJwYXRoMTU1MzY2IiBpbmtzY2FwZTpjb25uZWN0b3ItY3VydmF0dXJlPSIwIiBzdHlsZT0iZmlsbDojRkZGRkZGOyIgZD0iTTAuMDcsNTUuMzJjMCwwLDAsMC0wLjA3LDAuMDYgICAgIGMwLDAuMDYsMCwwLjEzLDAsMC4xOWMwLDAuMDYsMCwwLjA2LDAsMC4wNmMwLDAuMDYsMCwwLjE4LDAsMC4yNGMwLDEwLjE4LDAsMTAuMTgsMCwxMC4xOGM2LjEzLDAsMTEuOTEsMCwxNC4xNiwwICAgICBjNi4wMSwwLDEwLjgtNC4zNywxMC44LTEwLjI0YzAtMS4wOC0wLjEyLTIuMTEtMC40My0zLjAxYy0yMS40MiwwLTIxLjQyLDAtMjEuNDIsMEMxLjU4LDUyLjgsMC4zMSw1My44OSwwLjA3LDU1LjMyeiIvPiYjeGE7CQk8L2c+JiN4YTsJCTxnIGlkPSJzaGFwZTM2NzItMTIiIHRyYW5zZm9ybT0idHJhbnNsYXRlKDYuNDI5MDcsLTE3Ljc4OTkpIj4mI3hhOwkJCTx0aXRsZSBpZD0idGl0bGUxNTUzNjkiPlNoZWV0LjM2NzI8L3RpdGxlPiYjeGE7CQkJPHBhdGggaWQ9InBhdGgxNTUzNzEiIGlua3NjYXBlOmNvbm5lY3Rvci1jdXJ2YXR1cmU9IjAiIHN0eWxlPSJmaWxsOiNGRkZGRkY7IiBkPSJNMjEuNTIsNTIuOGMtMjEuMDQsMC0yMS4wNCwwLTIxLjA0LDAgICAgIEMwLjE5LDUzLjcsMCw1NC43MywwLDU1LjgxYzAsNS44Nyw0LjgxLDEwLjI0LDEwLjcxLDEwLjI0YzIuNTcsMCw4LjEsMCwxMy44NywwYzAtMTAuMTgsMC0xMC4xOCwwLTEwLjE4ICAgICBDMjQuNTgsNTQuMTksMjMuMjEsNTIuOCwyMS41Miw1Mi44eiIvPiYjeGE7CQk8L2c+JiN4YTsJCTxnIGlkPSJzaGFwZTM2NzMtMTQiIHRyYW5zZm9ybT0idHJhbnNsYXRlKDM1LjE3MDgsLTM1LjAxMikiPiYjeGE7CQkJPHRpdGxlIGlkPSJ0aXRsZTE1NTM3NCI+U2hlZXQuMzY3MzwvdGl0bGU+JiN4YTsJCQk8cGF0aCBpZD0icGF0aDE1NTM3NiIgaW5rc2NhcGU6Y29ubmVjdG9yLWN1cnZhdHVyZT0iMCIgc3R5bGU9ImZpbGw6I0ZGRkZGRjsiIGQ9Ik0xNy4xNiw2Mi42OWMwLTcuNTktNi4xOC0xMy42Ny0xMy43Ni0xMy42NyAgICAgYy0xLjIxLDAtMi4zLDAuMTMtMy40LDAuNDJjMCwxMy41NSwwLDEzLjU1LDAsMTMuNTVjMCwwLjA2LDAsMC4xNywwLDAuMjN2MC4wNmMwLDAuMDYsMCwwLjEzLDAsMC4yNWMwLjA3LDAsMC4wNywwLDAuMDcsMCAgICAgYzAuMjQsMS40NCwxLjUxLDIuNTIsMy4wMywyLjUyYzE5LjAyLDAsMTkuMDIsMCwxOS4wMiwwYy0xLjMyLTEuMzEtMy4wOC0yLjM0LTUuMDItMi45NUMxNy4xLDYyLjk5LDE3LjE2LDYyLjgxLDE3LjE2LDYyLjY5eiIvPiYjeGE7CQk8L2c+JiN4YTsJCTxnIGlkPSJzaGFwZTM2NzQtMTYiIHRyYW5zZm9ybT0idHJhbnNsYXRlKDkuMDc2MzQsLTM1LjAxMikiPiYjeGE7CQkJPHRpdGxlIGlkPSJ0aXRsZTE1NTM3OSI+U2hlZXQuMzY3NDwvdGl0bGU+JiN4YTsJCQk8cGF0aCBpZD0icGF0aDE1NTM4MSIgaW5rc2NhcGU6Y29ubmVjdG9yLWN1cnZhdHVyZT0iMCIgc3R5bGU9ImZpbGw6I0ZGRkZGRjsiIGQ9Ik0yMS45Myw2Mi45NWMwLTExLjg1LDAtMTEuODUsMC0xMS44NSAgICAgYy0xLjMyLDAuOTItMi40NywyLjAxLTMuNDIsMy4yOWMtMS4zMy0wLjg1LTIuODQtMS4zNC00LjUzLTEuMzRjLTQuNjMsMC04LjMxLDMuNzYtOC4zMSw4LjM5YzAsMC40OCwwLjA2LDAuOTcsMC4xMiwxLjQ1ICAgICBDMy41LDYzLjM4LDEuNTEsNjQuNDgsMCw2Ni4wNWMxOC44NiwwLDE4Ljg2LDAsMTguODYsMEMyMC41NSw2Ni4wNSwyMS45Myw2NC42NSwyMS45Myw2Mi45NXoiLz4mI3hhOwkJPC9nPiYjeGE7CTwvZz4mI3hhOzwvZz4mI3hhOzwvc3ZnPg==;" vertex="1" parent="1">
          <mxGeometry x="736" y="280" width="50" height="50" as="geometry" />
        </mxCell>
        <mxCell id="5wGyZsGhEu6iggw4Prn2-56" value="Api Gateway&lt;br&gt;" style="sketch=0;points=[[0,0,0],[0.25,0,0],[0.5,0,0],[0.75,0,0],[1,0,0],[0,1,0],[0.25,1,0],[0.5,1,0],[0.75,1,0],[1,1,0],[0,0.25,0],[0,0.5,0],[0,0.75,0],[1,0.25,0],[1,0.5,0],[1,0.75,0]];outlineConnect=0;fontColor=#232F3E;fillColor=#E7157B;strokeColor=#ffffff;dashed=0;verticalLabelPosition=bottom;verticalAlign=top;align=center;html=1;fontSize=12;fontStyle=0;aspect=fixed;shape=mxgraph.aws4.resourceIcon;resIcon=mxgraph.aws4.api_gateway;" vertex="1" parent="1">
          <mxGeometry x="180" y="251" width="78" height="78" as="geometry" />
        </mxCell>
      </root>
    </mxGraphModel>
  </diagram>
</mxfile>
